<svg xmlns="http://www.w3.org/2000/svg" xmlns:xlink="http://www.w3.org/1999/xlink" width="200" zoomAndPan="magnify" viewBox="0 0 150 51.749998" height="69" preserveAspectRatio="xMidYMid meet" version="1.0"><defs><clipPath id="b13defc94e"><path d="M 2 1 L 54 1 L 54 50.753906 L 2 50.753906 Z M 2 1 " clip-rule="nonzero"/></clipPath></defs><path fill="#ffffff" d="M 84.164062 2.324219 L 87.179688 2.339844 C 87.179688 2.339844 90.378906 2.371094 90.476562 4.691406 C 90.574219 7.011719 89.5625 7.902344 87.605469 7.992188 C 85.644531 8.082031 84.015625 8.023438 84.015625 8.023438 L 84.015625 7.574219 L 86.789062 7.636719 C 86.789062 7.636719 89.234375 7.367188 89.234375 5.820312 C 89.234375 4.273438 88.941406 4.007812 88.941406 4.007812 C 88.941406 4.007812 88.320312 2.847656 86.722656 2.726562 C 85.125 2.609375 83.492188 2.757812 83.492188 2.757812 Z M 84.164062 2.324219 " fill-opacity="1" fill-rule="nonzero"/><path fill="#ffffff" d="M 103.589844 2.269531 L 103.589844 2.824219 L 106.203125 2.824219 L 106.203125 13.523438 L 107.371094 13.523438 L 107.371094 2.824219 L 109.984375 2.824219 L 109.984375 2.238281 Z M 103.589844 2.269531 " fill-opacity="1" fill-rule="nonzero"/><path fill="#ffffff" d="M 111.574219 2.3125 L 112.464844 2.3125 L 112.464844 11.242188 C 112.464844 11.242188 112.839844 13.332031 115.0625 13.125 C 116.746094 13 118.152344 12.492188 118.144531 11.003906 C 118.109375 9.976562 118.144531 2.3125 118.144531 2.3125 L 118.65625 2.3125 L 118.65625 11.3125 C 118.65625 11.3125 118.757812 13.457031 115.644531 13.671875 C 113.4375 13.882812 111.863281 12.953125 111.609375 11.449219 C 111.4375 10.148438 111.574219 2.3125 111.574219 2.3125 Z M 111.574219 2.3125 " fill-opacity="1" fill-rule="nonzero"/><path fill="#ffffff" d="M 122.386719 2.277344 L 125.292969 2.277344 C 125.292969 2.277344 130.050781 2.398438 130.171875 7.1875 C 130.15625 9.371094 130.503906 10.675781 126.664062 13.171875 L 121.632812 13.363281 L 121.9375 12.835938 L 125.875 12.835938 C 125.875 12.835938 126.746094 13.824219 128.34375 11.257812 C 129.832031 8.058594 128.492188 4.65625 128.492188 4.65625 C 128.492188 4.65625 127.339844 2.980469 125.347656 2.878906 C 123.378906 2.773438 122.285156 2.792969 122.285156 2.792969 Z M 122.386719 2.277344 " fill-opacity="1" fill-rule="nonzero"/><path fill="#ffffff" d="M 121.632812 2.277344 L 122.386719 2.277344 L 122.386719 13.363281 L 121.632812 13.363281 Z M 121.632812 2.277344 " fill-opacity="1" fill-rule="nonzero"/><path fill="#ffffff" d="M 132.53125 2.265625 L 133.742188 2.265625 L 133.742188 13.34375 L 132.53125 13.34375 Z M 132.53125 2.265625 " fill-opacity="1" fill-rule="nonzero"/><path fill="#ffffff" d="M 136.027344 8.433594 L 136.871094 8.535156 C 136.871094 8.535156 136.234375 2.339844 141.046875 2.53125 C 145.855469 2.71875 145.121094 9.398438 145.121094 9.398438 L 145.640625 9.46875 L 145.972656 7.078125 C 145.972656 7.078125 145.128906 2.257812 140.960938 2.164062 C 136.847656 2.070312 136.054688 6.863281 136.054688 6.863281 Z M 136.027344 8.433594 " fill-opacity="1" fill-rule="nonzero"/><path fill="#ffffff" d="M 145.972656 7.078125 L 145.097656 7.523438 C 145.097656 7.523438 145.71875 13.898438 140.941406 13.710938 C 136.164062 13.523438 136.894531 6.890625 136.894531 6.890625 L 136.054688 6.863281 L 136.046875 9.195312 C 136.046875 9.195312 136.886719 13.984375 141.027344 14.074219 C 145.109375 14.167969 145.949219 8.980469 145.949219 8.980469 Z M 145.972656 7.078125 " fill-opacity="1" fill-rule="nonzero"/><path fill="#ffffff" d="M 102.046875 3.136719 L 101.78125 3.789062 C 101.78125 3.789062 100.230469 1.804688 98.371094 2.871094 C 96.507812 3.933594 97.523438 6.910156 99.433594 7.539062 C 101.34375 8.046875 103.070312 8.953125 102.507812 11.652344 C 102.386719 12.21875 99.335938 15.742188 96.578125 12.449219 L 96.820312 11.773438 C 96.820312 11.773438 99.507812 14.796875 101.007812 12.160156 C 102.722656 8.992188 99.652344 8.386719 99.191406 8.191406 C 98.730469 8 96.480469 7.25 96.601562 5.289062 C 96.722656 3.328125 97.789062 1.03125 102.046875 3.136719 " fill-opacity="1" fill-rule="nonzero"/><path fill="#ffffff" d="M 125.875 12.835938 C 125.875 12.835938 126.992188 12.957031 127.8125 12.050781 C 128.632812 11.144531 127.949219 12.222656 127.949219 12.222656 L 126.664062 13.171875 L 125.972656 13.164062 Z M 125.875 12.835938 " fill-opacity="1" fill-rule="nonzero"/><path fill="#ffffff" d="M 122.386719 13.363281 L 125.292969 13.363281 C 125.292969 13.363281 130.050781 13.246094 130.171875 8.46875 C 130.15625 6.296875 130.472656 5.355469 126.632812 2.867188 L 121.632812 2.3125 L 121.9375 2.839844 L 125.875 2.839844 C 125.875 2.839844 126.746094 1.851562 128.34375 4.410156 C 129.832031 7.601562 128.492188 10.992188 128.492188 10.992188 C 128.492188 10.992188 127.339844 12.664062 125.347656 12.765625 C 123.378906 12.871094 122.285156 12.851562 122.285156 12.851562 Z M 122.386719 13.363281 " fill-opacity="1" fill-rule="nonzero"/><path fill="#ffffff" d="M 136.046875 9.195312 C 136.046875 9.195312 137.351562 8.476562 136.054688 6.863281 C 136.050781 6.859375 136.527344 7.671875 136.527344 7.671875 L 136.421875 6.5625 L 136.511719 9.550781 " fill-opacity="1" fill-rule="nonzero"/><g clip-path="url(#b13defc94e)"><path fill="#ffffff" d="M 29.351562 15.539062 C 29.351562 15.539062 33.578125 14.929688 34.542969 17.203125 C 35.511719 19.480469 35.949219 20.882812 33.914062 22.042969 C 31.882812 23.207031 19.738281 28.238281 19.738281 28.238281 C 19.738281 28.238281 10.59375 31.964844 4.882812 24.367188 C -0.828125 16.769531 5.367188 11.109375 5.367188 11.109375 C 5.367188 11.109375 7.398438 8.980469 12.429688 6.996094 C 17.464844 5.011719 25.980469 1.960938 25.980469 1.960938 C 25.980469 1.960938 33.914062 0.21875 39.722656 2.398438 C 45.527344 4.574219 49.304688 9.171875 49.304688 9.171875 C 49.304688 9.171875 53.5625 13.816406 53.367188 19.625 C 53.167969 25.5625 51.578125 26.640625 51.578125 26.640625 C 51.578125 26.640625 48.480469 33.269531 40.980469 36.027344 C 33.480469 38.785156 31.640625 39.851562 31.640625 39.851562 L 34.929688 45.027344 C 34.929688 45.027344 36.820312 48.851562 32.949219 50.011719 C 29.078125 51.175781 27.1875 48.414062 27.1875 48.414062 L 19.253906 36.65625 L 39.140625 27.898438 C 39.140625 27.898438 45.527344 23.445312 44.898438 18.898438 C 44.296875 14.527344 41.949219 11.59375 38.800781 9.851562 C 35.125 7.574219 31.882812 8.15625 31.882812 8.15625 C 31.882812 8.15625 28.351562 8.6875 24.1875 10.429688 C 19.542969 12.171875 13.6875 14.785156 13.6875 14.785156 C 13.6875 14.785156 10.15625 15.898438 11.171875 18.703125 C 12.1875 21.511719 15.238281 21.269531 15.238281 21.269531 Z M 29.351562 15.539062 " fill-opacity="1" fill-rule="nonzero"/></g><path fill="#ffffff" d="M 62.078125 22.636719 L 64.980469 22.636719 L 64.980469 47.894531 L 62.078125 47.894531 Z M 62.078125 22.636719 " fill-opacity="1" fill-rule="nonzero"/><path fill="#ffffff" d="M 64.980469 22.636719 L 71.300781 22.671875 C 71.300781 22.671875 78.007812 22.738281 78.214844 28.078125 C 78.417969 33.414062 76.296875 35.46875 72.191406 35.671875 C 68.085938 35.878906 64.664062 35.742188 64.664062 35.742188 L 64.664062 34.714844 L 70.480469 34.851562 C 70.480469 34.851562 75.613281 34.234375 75.613281 30.675781 C 75.613281 27.121094 74.996094 26.503906 74.996094 26.503906 C 74.996094 26.503906 73.695312 23.835938 70.34375 23.5625 C 66.992188 23.285156 63.570312 23.628906 63.570312 23.628906 Z M 64.980469 22.636719 " fill-opacity="1" fill-rule="nonzero"/><path fill="#ffffff" d="M 101.851562 22.539062 L 104.757812 22.539062 L 104.757812 47.796875 L 101.851562 47.796875 Z M 101.851562 22.539062 " fill-opacity="1" fill-rule="nonzero"/><path fill="#ffffff" d="M 86.660156 25.734375 L 95.5625 47.894531 L 98.273438 47.894531 L 88.109375 21.570312 Z M 86.660156 25.734375 " fill-opacity="1" fill-rule="nonzero"/><path fill="#ffffff" d="M 77.464844 47.703125 L 88.109375 21.570312 L 88.886719 24.183594 L 86.660156 25.734375 L 87.359375 27.378906 L 79.308594 47.855469 Z M 77.464844 47.703125 " fill-opacity="1" fill-rule="nonzero"/><path fill="#ffffff" d="M 92.242188 38.753906 L 81.976562 38.753906 L 81.976562 39.777344 L 92.996094 39.777344 Z M 92.242188 38.753906 " fill-opacity="1" fill-rule="nonzero"/><path fill="#ffffff" d="M 133.300781 22.671875 L 133.300781 23.902344 L 139.117188 23.902344 L 139.117188 47.71875 L 141.71875 47.71875 L 141.71875 23.902344 L 147.535156 23.902344 L 147.535156 22.601562 Z M 133.300781 22.671875 " fill-opacity="1" fill-rule="nonzero"/><path fill="#ffffff" d="M 111.675781 22.535156 L 111.675781 47.582031 L 113.046875 47.582031 L 113.046875 26.367188 L 130.085938 48.46875 L 130.085938 22.601562 L 128.648438 22.601562 L 128.648438 42.105469 L 113.523438 22.464844 Z M 111.675781 22.535156 " fill-opacity="1" fill-rule="nonzero"/><path fill="#ffffff" d="M 70.035156 4.535156 L 70.789062 4.503906 C 70.789062 4.503906 68.421875 1.851562 66.09375 2.234375 C 63.554688 2.65625 62.730469 3.902344 62.730469 3.902344 C 62.730469 3.902344 61.6875 4.945312 61.550781 7.101562 C 61.414062 8.710938 61.652344 9.429688 61.652344 9.429688 C 61.652344 9.429688 62.335938 13.707031 65.859375 13.742188 C 69.386719 13.773438 70.753906 11.652344 70.753906 11.652344 L 70.242188 11.070312 C 70.242188 11.070312 64.574219 16.34375 62.816406 10.113281 C 60.835938 3.105469 66.5 2.601562 66.5 2.601562 C 66.5 2.601562 68.359375 2.3125 70.035156 4.535156 Z M 70.035156 4.535156 " fill-opacity="1" fill-rule="nonzero"/><path fill="#ffffff" d="M 72.671875 2.414062 L 73.902344 2.414062 L 73.902344 12.613281 L 77.871094 12.613281 L 77.855469 13.382812 L 72.671875 13.398438 Z M 72.671875 2.414062 " fill-opacity="1" fill-rule="nonzero"/><path fill="#ffffff" d="M 79.035156 2.347656 L 80.265625 2.347656 L 80.265625 13.363281 L 79.171875 13.363281 Z M 79.035156 2.347656 " fill-opacity="1" fill-rule="nonzero"/><path fill="#ffffff" d="M 83.492188 2.320312 L 84.503906 2.320312 L 84.503906 13.273438 L 83.492188 13.273438 Z M 83.492188 2.320312 " fill-opacity="1" fill-rule="nonzero"/></svg>