<svg xmlns="http://www.w3.org/2000/svg" xmlns:xlink="http://www.w3.org/1999/xlink" width="705" zoomAndPan="magnify" viewBox="0 0 528.75 130.499996" height="174" preserveAspectRatio="xMidYMid meet" version="1.0"><defs><g/><clipPath id="16cc8a5858"><path d="M 0.882812 51 L 70 51 L 70 80 L 0.882812 80 Z M 0.882812 51 " clip-rule="nonzero"/></clipPath><clipPath id="c915af3ff3"><path d="M 15 11.871094 L 86.804688 11.871094 L 86.804688 105.261719 L 15 105.261719 Z M 15 11.871094 " clip-rule="nonzero"/></clipPath></defs><path fill="#ffffff" d="M 50.453125 59.441406 C 49.871094 59.441406 49.445312 59.480469 49.160156 59.519531 L 49.160156 71.898438 C 49.429688 71.914062 49.757812 71.914062 50.023438 71.914062 L 50.027344 71.914062 C 51.832031 71.914062 53.191406 71.390625 54.136719 70.34375 C 55.148438 69.222656 55.664062 67.546875 55.664062 65.339844 C 55.664062 61.539062 53.816406 59.441406 50.453125 59.441406 Z M 50.453125 59.441406 " fill-opacity="1" fill-rule="nonzero"/><g clip-path="url(#16cc8a5858)"><path fill="#ffffff" d="M 65.449219 51.308594 L 4.5 51.308594 C 2.523438 51.308594 0.914062 52.917969 0.914062 54.894531 L 0.914062 76.40625 C 0.914062 78.382812 2.523438 79.992188 4.5 79.992188 L 65.449219 79.992188 C 67.425781 79.992188 69.035156 78.382812 69.035156 76.40625 L 69.035156 54.894531 C 69.035156 52.917969 67.425781 51.308594 65.449219 51.308594 Z M 20.390625 66.917969 C 18.925781 68.433594 16.734375 69.234375 14.066406 69.234375 C 13.753906 69.234375 13.476562 69.222656 13.234375 69.203125 L 13.234375 75.863281 C 13.234375 76.179688 12.980469 76.433594 12.664062 76.433594 L 8.582031 76.433594 C 8.273438 76.433594 8.015625 76.179688 8.015625 75.863281 L 8.015625 55.746094 C 8.015625 55.476562 8.214844 55.242188 8.480469 55.191406 C 9.992188 54.910156 11.898438 54.757812 14.152344 54.757812 C 16.8125 54.757812 18.757812 55.34375 20.097656 56.539062 C 21.449219 57.707031 22.230469 59.585938 22.230469 61.679688 C 22.226562 63.855469 21.578125 65.722656 20.390625 66.917969 Z M 31.433594 76.742188 C 29.179688 76.742188 27.027344 76.035156 25.976562 75.382812 C 25.773438 75.257812 25.671875 75.015625 25.726562 74.78125 L 26.558594 71 C 26.601562 70.824219 26.714844 70.671875 26.882812 70.601562 C 27.050781 70.53125 27.246094 70.535156 27.398438 70.632812 C 28.382812 71.207031 30.027344 71.820312 31.679688 71.820312 C 32.546875 71.820312 33.996094 71.609375 33.996094 70.183594 C 33.996094 69.359375 33.570312 68.742188 31.3125 67.867188 C 27.734375 66.445312 25.921875 64.230469 25.921875 61.292969 C 25.921875 57.359375 28.984375 54.613281 33.378906 54.613281 C 35.269531 54.613281 36.921875 54.988281 38.289062 55.710938 C 38.515625 55.828125 38.640625 56.09375 38.574219 56.347656 L 37.65625 60.039062 C 37.613281 60.210938 37.496094 60.355469 37.332031 60.421875 C 37.175781 60.492188 36.984375 60.484375 36.828125 60.398438 C 36.230469 60.0625 34.976562 59.5 33.320312 59.5 C 32.054688 59.5 31.238281 60.046875 31.238281 60.898438 C 31.238281 61.765625 31.835938 62.230469 34.273438 63.246094 C 37.714844 64.675781 39.320312 66.773438 39.320312 69.855469 C 39.324219 73.03125 37.253906 76.742188 31.433594 76.742188 Z M 57.976562 73.859375 C 56.011719 75.683594 52.96875 76.648438 49.160156 76.648438 C 46.90625 76.648438 45.328125 76.476562 44.402344 76.335938 C 44.121094 76.289062 43.914062 76.058594 43.914062 75.777344 L 43.914062 55.785156 C 43.914062 55.515625 44.113281 55.273438 44.382812 55.226562 C 46.035156 54.929688 48.039062 54.761719 50.023438 54.761719 C 53.542969 54.761719 55.964844 55.476562 57.867188 57.074219 C 60.015625 58.863281 61.152344 61.671875 61.152344 65.195312 C 61.15625 69.832031 59.421875 72.464844 57.976562 73.859375 Z M 57.976562 73.859375 " fill-opacity="1" fill-rule="nonzero"/></g><path fill="#ffffff" d="M 14.339844 59.40625 C 13.824219 59.40625 13.46875 59.429688 13.230469 59.460938 L 13.230469 64.53125 C 13.445312 64.554688 13.703125 64.5625 14.039062 64.5625 C 15.925781 64.5625 17.007812 63.570312 17.007812 61.835938 C 17.007812 59.828125 15.558594 59.40625 14.339844 59.40625 Z M 14.339844 59.40625 " fill-opacity="1" fill-rule="nonzero"/><g clip-path="url(#c915af3ff3)"><path fill="#ffffff" d="M 77.160156 26.953125 C 76.285156 26.09375 75.386719 25.21875 74.507812 24.328125 C 73.617188 23.449219 72.742188 22.550781 71.882812 21.675781 C 65.742188 15.414062 62.089844 11.871094 58.28125 11.871094 L 29.597656 11.871094 C 21.691406 11.871094 15.257812 18.304688 15.257812 26.210938 L 15.257812 52.027344 L 22.425781 52.027344 L 22.425781 26.210938 C 22.425781 22.253906 25.640625 19.042969 29.597656 19.042969 L 55.730469 19.027344 C 58.316406 19.6875 58.28125 22.863281 58.28125 26.042969 L 58.28125 36.96875 C 58.28125 38.941406 59.890625 40.554688 61.863281 40.554688 L 72.621094 40.554688 C 76.199219 40.554688 79.792969 40.570312 79.792969 44.136719 L 79.792969 90.746094 C 79.792969 94.703125 76.578125 97.917969 72.621094 97.917969 L 29.597656 97.917969 C 25.640625 97.917969 22.425781 94.703125 22.425781 90.746094 L 22.425781 79.273438 L 15.257812 79.273438 L 15.257812 90.746094 C 15.257812 98.652344 21.691406 105.085938 29.597656 105.085938 L 72.621094 105.085938 C 80.527344 105.085938 86.960938 98.652344 86.960938 90.746094 L 86.960938 40.554688 C 86.960938 36.746094 83.417969 33.089844 77.160156 26.953125 Z M 77.160156 26.953125 " fill-opacity="1" fill-rule="nonzero"/></g><g fill="#ffffff" fill-opacity="1"><g transform="translate(99.193604, 86.709348)"><g><path d="M 8.40625 0.1875 L 7.28125 0.125 L 5.328125 -0.5 L 4.640625 -1.6875 L 4.703125 -13.296875 L 4.578125 -14.5 L 4.640625 -30.75 L 4.515625 -31.9375 L 4.765625 -34.453125 L 4.703125 -42.046875 L 5.265625 -43.046875 L 6.59375 -43.734375 L 7.90625 -43.984375 L 9.03125 -43.796875 L 10.421875 -43.734375 L 14.3125 -43.984375 L 15.5625 -43.796875 L 19.390625 -43.734375 L 20.765625 -43.921875 L 22.78125 -43.984375 L 24.65625 -43.921875 L 25.921875 -43.484375 L 27.171875 -43.484375 L 28.234375 -43.046875 L 30.75 -42.296875 L 32.8125 -40.90625 L 35.640625 -38.46875 L 37.140625 -36.390625 L 38.34375 -34.265625 L 39.09375 -31.9375 L 39.28125 -30.5625 L 39.53125 -29.5 L 39.40625 -24.34375 L 39.03125 -23.34375 L 38.84375 -21.96875 L 37.78125 -19.515625 L 36.453125 -17.5 L 35.640625 -16.5625 L 34.828125 -15.75 L 33.953125 -14.75 L 33 -14 L 27.046875 -11.609375 L 20.578125 -11.109375 L 19.265625 -11.359375 L 17.890625 -11.234375 L 16.4375 -10.546875 L 15.875 -9.40625 L 15.9375 -7.96875 L 15.8125 -6.78125 L 15.9375 -4.453125 L 15.875 -3.078125 L 15.9375 -1.8125 L 15.375 -0.5 L 14.0625 0 L 12.609375 0.125 L 11.484375 0.0625 Z M 17.828125 -21.265625 L 19.328125 -21.390625 L 22.53125 -21.328125 L 24.46875 -21.59375 L 25.46875 -21.90625 L 26.484375 -22.65625 L 27.296875 -23.65625 L 27.859375 -24.65625 L 28.296875 -25.796875 L 28.421875 -27.484375 L 28.296875 -29.234375 L 28.109375 -30.375 L 27.484375 -31.625 L 26.671875 -32.4375 L 25.671875 -33.125 L 24.40625 -33.703125 L 17.890625 -33.890625 L 16.5625 -33.25 L 15.9375 -32.0625 L 15.9375 -29.5 L 15.8125 -28.171875 L 16 -23.09375 L 16.5625 -22.03125 Z M 17.828125 -21.265625 "/></g></g></g><g fill="#ffffff" fill-opacity="1"><g transform="translate(140.481699, 86.709348)"><g><path d="M 4.765625 -1.75 L 4.640625 -8.15625 L 4.765625 -9.40625 L 4.578125 -10.546875 L 4.765625 -11.796875 L 4.640625 -13.171875 L 4.828125 -16.125 L 4.703125 -17.5625 L 4.828125 -19.515625 L 4.640625 -20.703125 L 4.640625 -24.34375 L 4.765625 -25.671875 L 4.515625 -29.5 L 4.765625 -30.75 L 4.640625 -31.8125 L 4.828125 -33.1875 L 4.515625 -36.953125 L 4.703125 -38.15625 L 4.578125 -39.53125 L 4.578125 -40.71875 L 4.765625 -42.109375 L 5.453125 -43.171875 L 7.40625 -43.734375 L 8.59375 -43.859375 L 9.859375 -43.734375 L 13.546875 -43.859375 L 15.5 -43.234375 L 16.25 -41.921875 L 16.1875 -40.84375 L 16.375 -34.640625 L 16.25 -33.515625 L 16.25 -29.75 L 16.75 -28.546875 L 18.078125 -27.984375 L 24.15625 -28.046875 L 25.28125 -27.921875 L 27.796875 -27.921875 L 28.859375 -28.546875 L 29.5625 -29.8125 L 29.5625 -33.453125 L 29.8125 -34.515625 L 29.6875 -41.359375 L 30.1875 -43.171875 L 32.0625 -43.734375 L 33.3125 -43.734375 L 35.328125 -43.921875 L 38.53125 -43.859375 L 40.46875 -43.234375 L 41.09375 -41.984375 L 41.234375 -40.71875 L 40.96875 -39.46875 L 41.09375 -38.28125 L 41.359375 -37.078125 L 41.03125 -31.875 L 41.234375 -25.734375 L 41.09375 -24.34375 L 41.171875 -21.96875 L 40.96875 -20.640625 L 40.96875 -19.390625 L 41.09375 -18.078125 L 41.03125 -16.8125 L 41.296875 -14.4375 L 41.296875 -4.328125 L 41.03125 -1.75 L 40.34375 -0.5625 L 39.09375 0.125 L 34.765625 0.125 L 32.875 -0.0625 L 31.625 0.0625 L 30.375 -0.5625 L 29.75 -1.875 L 29.5625 -4.328125 L 29.8125 -6.21875 L 29.5625 -10.671875 L 29.75 -11.859375 L 29.5625 -15.6875 L 28.921875 -16.9375 L 27.796875 -17.5625 L 26.609375 -17.5625 L 25.34375 -17.703125 L 24.09375 -17.5625 L 20.390625 -17.5625 L 19.265625 -17.703125 L 17.953125 -17.703125 L 16.6875 -16.9375 L 16.0625 -15.625 L 16.25 -10.671875 L 16.125 -9.34375 L 16.1875 -7.96875 L 16.0625 -6.78125 L 16.1875 -5.515625 L 16.0625 -4.390625 L 16.25 -3.015625 L 16.1875 -1.75 L 15.6875 -0.5 L 14.3125 0.0625 L 12.984375 0.1875 L 11.671875 0 L 9.859375 -0.0625 L 7.90625 0.125 L 6.71875 0.125 L 5.265625 -0.4375 Z M 4.765625 -1.75 "/></g></g></g><g fill="#ffffff" fill-opacity="1"><g transform="translate(186.413135, 86.709348)"><g><path d="M 23.46875 0.75 L 22.15625 0.625 L 19.890625 0.125 L 18.515625 0 L 16.6875 -0.625 L 11.796875 -3.140625 L 9.71875 -4.765625 L 9.03125 -5.578125 L 8.09375 -6.46875 L 7.28125 -7.46875 L 6.53125 -8.21875 L 3.640625 -13.9375 L 3.078125 -16.3125 L 2.953125 -17.5 L 2.640625 -18.640625 L 2.453125 -19.953125 L 2.640625 -25.03125 L 3.703125 -29.875 L 4.640625 -32.25 L 6.59375 -35.578125 L 9.65625 -39.15625 L 11.796875 -40.71875 L 12.921875 -41.296875 L 13.875 -41.984375 L 18.578125 -43.734375 L 25.21875 -44.671875 L 26.921875 -44.609375 L 30.5625 -43.984375 L 35.390625 -42.484375 L 36.328125 -41.796875 L 38.21875 -40.96875 L 39.65625 -39.96875 L 41.484375 -38.40625 L 43.234375 -36.453125 L 44.609375 -34.578125 L 45.8125 -32.25 L 47.375 -27.546875 L 47.8125 -24.96875 L 48 -21.84375 L 47.75 -20.015625 L 47.6875 -18.703125 L 47.375 -17.4375 L 47.3125 -16.3125 L 46.8125 -13.9375 L 45.875 -11.546875 L 43.109375 -7.34375 L 42.234375 -6.46875 L 41.421875 -5.328125 L 39.65625 -3.828125 L 38.46875 -3.265625 L 37.53125 -2.515625 L 35.453125 -1.375 L 30.75 0.1875 L 26.984375 0.6875 Z M 26.984375 -10.359375 L 28.234375 -10.609375 L 29.171875 -11.046875 L 30.3125 -11.359375 L 33.3125 -13.421875 L 34.203125 -14.4375 L 34.578125 -15.375 L 35.265625 -16.5 L 35.703125 -17.625 L 36.203125 -19.953125 L 36.328125 -23.78125 L 36.140625 -24.90625 L 35.578125 -26.109375 L 34.828125 -28.484375 L 32.375 -31.0625 L 30.4375 -32.4375 L 29.296875 -32.9375 L 28.171875 -33.1875 L 25.15625 -33.578125 L 23.40625 -33.453125 L 20.953125 -32.8125 L 20.140625 -32.5 L 17 -30.375 L 15.5 -28.359375 L 15.125 -27.234375 L 14.625 -26.109375 L 14.4375 -24.90625 L 14.125 -23.78125 L 14.125 -19.953125 L 14.625 -17.625 L 15.1875 -16.5 L 15.5 -15.5 L 16.375 -14.3125 L 17.1875 -13.421875 L 18.890625 -12.046875 L 19.890625 -11.484375 L 22.15625 -10.546875 L 23.53125 -10.359375 Z M 26.984375 -10.359375 "/></g></g></g><g fill="#ffffff" fill-opacity="1"><g transform="translate(236.736922, 86.709348)"><g><path d="M 12.046875 -1.9375 L 11.984375 -6.84375 L 12.109375 -8.09375 L 11.921875 -11.921875 L 11.984375 -13.234375 L 11.921875 -14.5 L 12.171875 -16.375 L 11.984375 -18.203125 L 11.984375 -20.703125 L 12.109375 -21.96875 L 11.984375 -23.15625 L 12.171875 -25.09375 L 11.984375 -32 L 11.359375 -33.1875 L 10.234375 -33.890625 L 4.640625 -33.953125 L 3.015625 -33.765625 L 1.75 -34.390625 L 1.0625 -35.765625 L 1.125 -42.046875 L 1.75 -43.296875 L 3.140625 -43.921875 L 21.84375 -43.796875 L 23.28125 -43.984375 L 24.53125 -43.984375 L 25.796875 -43.859375 L 27.046875 -43.859375 L 28.421875 -44.046875 L 29.625 -44.046875 L 30.625 -43.921875 L 32.125 -44.046875 L 33.390625 -43.421875 L 34.015625 -42.171875 L 33.890625 -37.015625 L 34.015625 -35.703125 L 33.390625 -34.453125 L 31.9375 -33.890625 L 28.484375 -33.953125 L 27.359375 -33.828125 L 26.109375 -33.890625 L 25.03125 -33.828125 L 23.65625 -33.25 L 23.15625 -32.125 L 23.28125 -30.75 L 23.09375 -29.5 L 23.34375 -17 L 23.15625 -14.375 L 23.28125 -13.234375 L 23.15625 -9.40625 L 22.96875 -8.09375 L 23.15625 -7.03125 L 23.21875 -4.515625 L 23.09375 -3.078125 L 23.15625 -1.875 L 22.65625 -0.625 L 21.390625 -0.125 L 17.5 -0.125 L 16.3125 0 L 15.0625 -0.125 L 13.875 0 L 12.546875 -0.625 Z M 12.046875 -1.9375 "/></g></g></g><g fill="#ffffff" fill-opacity="1"><g transform="translate(271.812978, 86.709348)"><g><path d="M 23.46875 0.75 L 22.15625 0.625 L 19.890625 0.125 L 18.515625 0 L 16.6875 -0.625 L 11.796875 -3.140625 L 9.71875 -4.765625 L 9.03125 -5.578125 L 8.09375 -6.46875 L 7.28125 -7.46875 L 6.53125 -8.21875 L 3.640625 -13.9375 L 3.078125 -16.3125 L 2.953125 -17.5 L 2.640625 -18.640625 L 2.453125 -19.953125 L 2.640625 -25.03125 L 3.703125 -29.875 L 4.640625 -32.25 L 6.59375 -35.578125 L 9.65625 -39.15625 L 11.796875 -40.71875 L 12.921875 -41.296875 L 13.875 -41.984375 L 18.578125 -43.734375 L 25.21875 -44.671875 L 26.921875 -44.609375 L 30.5625 -43.984375 L 35.390625 -42.484375 L 36.328125 -41.796875 L 38.21875 -40.96875 L 39.65625 -39.96875 L 41.484375 -38.40625 L 43.234375 -36.453125 L 44.609375 -34.578125 L 45.8125 -32.25 L 47.375 -27.546875 L 47.8125 -24.96875 L 48 -21.84375 L 47.75 -20.015625 L 47.6875 -18.703125 L 47.375 -17.4375 L 47.3125 -16.3125 L 46.8125 -13.9375 L 45.875 -11.546875 L 43.109375 -7.34375 L 42.234375 -6.46875 L 41.421875 -5.328125 L 39.65625 -3.828125 L 38.46875 -3.265625 L 37.53125 -2.515625 L 35.453125 -1.375 L 30.75 0.1875 L 26.984375 0.6875 Z M 26.984375 -10.359375 L 28.234375 -10.609375 L 29.171875 -11.046875 L 30.3125 -11.359375 L 33.3125 -13.421875 L 34.203125 -14.4375 L 34.578125 -15.375 L 35.265625 -16.5 L 35.703125 -17.625 L 36.203125 -19.953125 L 36.328125 -23.78125 L 36.140625 -24.90625 L 35.578125 -26.109375 L 34.828125 -28.484375 L 32.375 -31.0625 L 30.4375 -32.4375 L 29.296875 -32.9375 L 28.171875 -33.1875 L 25.15625 -33.578125 L 23.40625 -33.453125 L 20.953125 -32.8125 L 20.140625 -32.5 L 17 -30.375 L 15.5 -28.359375 L 15.125 -27.234375 L 14.625 -26.109375 L 14.4375 -24.90625 L 14.125 -23.78125 L 14.125 -19.953125 L 14.625 -17.625 L 15.1875 -16.5 L 15.5 -15.5 L 16.375 -14.3125 L 17.1875 -13.421875 L 18.890625 -12.046875 L 19.890625 -11.484375 L 22.15625 -10.546875 L 23.53125 -10.359375 Z M 26.984375 -10.359375 "/></g></g></g><g fill="#ffffff" fill-opacity="1"><g transform="translate(322.136764, 86.709348)"><g><path d="M 18.203125 0.5 L 15.5625 0.3125 L 14.375 -0.125 L 12.984375 -0.3125 L 8.46875 -2.390625 L 7.40625 -3.078125 L 5.578125 -4.890625 L 4.015625 -6.84375 L 3.015625 -9.34375 L 2.765625 -10.484375 L 2.640625 -11.859375 L 3.078125 -13.171875 L 4.328125 -13.75 L 5.578125 -13.671875 L 6.84375 -13.8125 L 11.609375 -13.671875 L 12.859375 -13.171875 L 13.8125 -11.921875 L 14.75 -11.046875 L 15.875 -10.359375 L 16.8125 -9.921875 L 18.265625 -9.53125 L 20.140625 -9.40625 L 21.90625 -9.46875 L 24.21875 -10.171875 L 25.21875 -10.734375 L 26.234375 -11.609375 L 26.609375 -13.234375 L 26.296875 -14.875 L 25.40625 -15.625 L 23.15625 -16.5625 L 21.90625 -16.625 L 20.765625 -16.8125 L 15.625 -17.1875 L 13.359375 -17.703125 L 9.78125 -18.890625 L 7.59375 -20.203125 L 5.828125 -21.84375 L 4.265625 -23.90625 L 3.453125 -26.109375 L 3.015625 -27.859375 L 2.953125 -32.0625 L 3.828125 -35.703125 L 4.453125 -36.703125 L 4.890625 -37.84375 L 5.703125 -38.65625 L 6.40625 -39.71875 L 7.53125 -40.46875 L 8.40625 -41.296875 L 9.65625 -42.046875 L 10.671875 -42.421875 L 11.671875 -43.046875 L 12.796875 -43.484375 L 17.765625 -44.484375 L 21.265625 -44.546875 L 22.65625 -44.234375 L 23.78125 -44.109375 L 25.09375 -43.859375 L 28.546875 -42.671875 L 32.5625 -39.90625 L 33.390625 -38.96875 L 34.015625 -37.96875 L 34.828125 -36.953125 L 35.828125 -34.703125 L 36.328125 -32.25 L 35.765625 -31.0625 L 34.578125 -30.3125 L 33.390625 -30.4375 L 32.25 -30.3125 L 28.109375 -30.4375 L 26.171875 -31.0625 L 24.09375 -33.25 L 23.15625 -34.015625 L 21.78125 -34.515625 L 17.765625 -34.390625 L 16.625 -34.140625 L 15.75 -33.765625 L 14.6875 -32.9375 L 14 -32.0625 L 13.8125 -30.4375 L 13.875 -28.734375 L 14.875 -27.734375 L 15.8125 -27.234375 L 18.453125 -26.296875 L 24.78125 -25.46875 L 29.9375 -24.21875 L 33.25 -22.71875 L 34.328125 -21.84375 L 35.828125 -19.890625 L 37.078125 -17.5625 L 37.40625 -16.375 L 37.59375 -15.125 L 37.53125 -11.234375 L 37.34375 -10.109375 L 36.953125 -8.84375 L 36.453125 -7.71875 L 35.203125 -5.703125 L 33.453125 -3.703125 L 31.4375 -2.328125 L 28.171875 -0.5625 L 22.03125 0.625 L 20.015625 0.6875 Z M 18.203125 0.5 "/></g></g></g><g fill="#ffffff" fill-opacity="1"><g transform="translate(362.169901, 86.709348)"><g><path d="M 4.765625 -1.75 L 4.640625 -8.15625 L 4.765625 -9.40625 L 4.578125 -10.546875 L 4.765625 -11.796875 L 4.640625 -13.171875 L 4.828125 -16.125 L 4.703125 -17.5625 L 4.828125 -19.515625 L 4.640625 -20.703125 L 4.640625 -24.34375 L 4.765625 -25.671875 L 4.515625 -29.5 L 4.765625 -30.75 L 4.640625 -31.8125 L 4.828125 -33.1875 L 4.515625 -36.953125 L 4.703125 -38.15625 L 4.578125 -39.53125 L 4.578125 -40.71875 L 4.765625 -42.109375 L 5.453125 -43.171875 L 7.40625 -43.734375 L 8.59375 -43.859375 L 9.859375 -43.734375 L 13.546875 -43.859375 L 15.5 -43.234375 L 16.25 -41.921875 L 16.1875 -40.84375 L 16.375 -34.640625 L 16.25 -33.515625 L 16.25 -29.75 L 16.75 -28.546875 L 18.078125 -27.984375 L 24.15625 -28.046875 L 25.28125 -27.921875 L 27.796875 -27.921875 L 28.859375 -28.546875 L 29.5625 -29.8125 L 29.5625 -33.453125 L 29.8125 -34.515625 L 29.6875 -41.359375 L 30.1875 -43.171875 L 32.0625 -43.734375 L 33.3125 -43.734375 L 35.328125 -43.921875 L 38.53125 -43.859375 L 40.46875 -43.234375 L 41.09375 -41.984375 L 41.234375 -40.71875 L 40.96875 -39.46875 L 41.09375 -38.28125 L 41.359375 -37.078125 L 41.03125 -31.875 L 41.234375 -25.734375 L 41.09375 -24.34375 L 41.171875 -21.96875 L 40.96875 -20.640625 L 40.96875 -19.390625 L 41.09375 -18.078125 L 41.03125 -16.8125 L 41.296875 -14.4375 L 41.296875 -4.328125 L 41.03125 -1.75 L 40.34375 -0.5625 L 39.09375 0.125 L 34.765625 0.125 L 32.875 -0.0625 L 31.625 0.0625 L 30.375 -0.5625 L 29.75 -1.875 L 29.5625 -4.328125 L 29.8125 -6.21875 L 29.5625 -10.671875 L 29.75 -11.859375 L 29.5625 -15.6875 L 28.921875 -16.9375 L 27.796875 -17.5625 L 26.609375 -17.5625 L 25.34375 -17.703125 L 24.09375 -17.5625 L 20.390625 -17.5625 L 19.265625 -17.703125 L 17.953125 -17.703125 L 16.6875 -16.9375 L 16.0625 -15.625 L 16.25 -10.671875 L 16.125 -9.34375 L 16.1875 -7.96875 L 16.0625 -6.78125 L 16.1875 -5.515625 L 16.0625 -4.390625 L 16.25 -3.015625 L 16.1875 -1.75 L 15.6875 -0.5 L 14.3125 0.0625 L 12.984375 0.1875 L 11.671875 0 L 9.859375 -0.0625 L 7.90625 0.125 L 6.71875 0.125 L 5.265625 -0.4375 Z M 4.765625 -1.75 "/></g></g></g><g fill="#ffffff" fill-opacity="1"><g transform="translate(408.101337, 86.709348)"><g><path d="M 23.46875 0.75 L 22.15625 0.625 L 19.890625 0.125 L 18.515625 0 L 16.6875 -0.625 L 11.796875 -3.140625 L 9.71875 -4.765625 L 9.03125 -5.578125 L 8.09375 -6.46875 L 7.28125 -7.46875 L 6.53125 -8.21875 L 3.640625 -13.9375 L 3.078125 -16.3125 L 2.953125 -17.5 L 2.640625 -18.640625 L 2.453125 -19.953125 L 2.640625 -25.03125 L 3.703125 -29.875 L 4.640625 -32.25 L 6.59375 -35.578125 L 9.65625 -39.15625 L 11.796875 -40.71875 L 12.921875 -41.296875 L 13.875 -41.984375 L 18.578125 -43.734375 L 25.21875 -44.671875 L 26.921875 -44.609375 L 30.5625 -43.984375 L 35.390625 -42.484375 L 36.328125 -41.796875 L 38.21875 -40.96875 L 39.65625 -39.96875 L 41.484375 -38.40625 L 43.234375 -36.453125 L 44.609375 -34.578125 L 45.8125 -32.25 L 47.375 -27.546875 L 47.8125 -24.96875 L 48 -21.84375 L 47.75 -20.015625 L 47.6875 -18.703125 L 47.375 -17.4375 L 47.3125 -16.3125 L 46.8125 -13.9375 L 45.875 -11.546875 L 43.109375 -7.34375 L 42.234375 -6.46875 L 41.421875 -5.328125 L 39.65625 -3.828125 L 38.46875 -3.265625 L 37.53125 -2.515625 L 35.453125 -1.375 L 30.75 0.1875 L 26.984375 0.6875 Z M 26.984375 -10.359375 L 28.234375 -10.609375 L 29.171875 -11.046875 L 30.3125 -11.359375 L 33.3125 -13.421875 L 34.203125 -14.4375 L 34.578125 -15.375 L 35.265625 -16.5 L 35.703125 -17.625 L 36.203125 -19.953125 L 36.328125 -23.78125 L 36.140625 -24.90625 L 35.578125 -26.109375 L 34.828125 -28.484375 L 32.375 -31.0625 L 30.4375 -32.4375 L 29.296875 -32.9375 L 28.171875 -33.1875 L 25.15625 -33.578125 L 23.40625 -33.453125 L 20.953125 -32.8125 L 20.140625 -32.5 L 17 -30.375 L 15.5 -28.359375 L 15.125 -27.234375 L 14.625 -26.109375 L 14.4375 -24.90625 L 14.125 -23.78125 L 14.125 -19.953125 L 14.625 -17.625 L 15.1875 -16.5 L 15.5 -15.5 L 16.375 -14.3125 L 17.1875 -13.421875 L 18.890625 -12.046875 L 19.890625 -11.484375 L 22.15625 -10.546875 L 23.53125 -10.359375 Z M 26.984375 -10.359375 "/></g></g></g><g fill="#ffffff" fill-opacity="1"><g transform="translate(458.425124, 86.709348)"><g><path d="M 4.640625 -1.9375 L 4.578125 -3.140625 L 4.765625 -4.328125 L 4.515625 -5.515625 L 4.828125 -6.78125 L 4.640625 -10.734375 L 4.828125 -13.234375 L 4.640625 -14.4375 L 4.640625 -17.0625 L 4.765625 -18.265625 L 4.578125 -20.140625 L 4.828125 -21.84375 L 4.640625 -24.40625 L 4.765625 -25.796875 L 4.640625 -26.921875 L 4.765625 -28.171875 L 4.765625 -34.578125 L 4.578125 -35.890625 L 4.578125 -37.078125 L 4.765625 -38.21875 L 4.765625 -40.78125 L 4.890625 -42.109375 L 5.515625 -43.296875 L 7.21875 -43.859375 L 25.984375 -43.796875 L 27.109375 -43.546875 L 28.359375 -43.046875 L 29.6875 -42.796875 L 31.9375 -41.609375 L 33.828125 -40.34375 L 34.890625 -39.40625 L 35.578125 -38.46875 L 36.390625 -37.59375 L 37.203125 -36.515625 L 38.46875 -34.265625 L 39.59375 -29.359375 L 39.53125 -25.671875 L 39.40625 -24.53125 L 38.84375 -21.96875 L 38.40625 -20.828125 L 37.84375 -19.703125 L 35.828125 -16.6875 L 33.953125 -14.875 L 32.9375 -14.125 L 30.8125 -12.796875 L 27.171875 -11.734375 L 24.59375 -11.234375 L 21.328125 -11.171875 L 19.453125 -11.359375 L 18.078125 -11.171875 L 16.375 -10.546875 L 15.9375 -9.46875 L 15.9375 -8.15625 L 16.0625 -6.78125 L 15.875 -5.640625 L 16 -4.453125 L 15.9375 -1.9375 L 15.375 -0.625 L 14.125 0.0625 L 12.796875 0.0625 L 11.421875 -0.0625 L 7.71875 0 L 6.46875 -0.125 L 5.140625 -0.625 Z M 17.953125 -21.390625 L 19.390625 -21.265625 L 24.53125 -21.59375 L 25.546875 -22.15625 L 26.546875 -22.84375 L 27.984375 -24.59375 L 28.671875 -27.484375 L 28.109375 -30.4375 L 27.484375 -31.5 L 26.484375 -32.4375 L 25.546875 -33.125 L 24.46875 -33.703125 L 19.453125 -33.953125 L 17.890625 -33.828125 L 16.625 -33.3125 L 15.875 -31.9375 L 16 -23.21875 L 16.75 -21.96875 Z M 17.953125 -21.390625 "/></g></g></g></svg>