<svg xmlns="http://www.w3.org/2000/svg" xmlns:xlink="http://www.w3.org/1999/xlink" width="726" zoomAndPan="magnify" viewBox="0 0 544.5 130.499996" height="174" preserveAspectRatio="xMidYMid meet" version="1.0"><defs><g/><clipPath id="771e7ec464"><path d="M 1 11.871094 L 73.261719 11.871094 L 73.261719 79 L 1 79 Z M 1 11.871094 " clip-rule="nonzero"/></clipPath><clipPath id="f368b8c022"><path d="M 1 82 L 73.261719 82 L 73.261719 105.261719 L 1 105.261719 Z M 1 82 " clip-rule="nonzero"/></clipPath></defs><path fill="#ffffff" d="M 34.253906 42.445312 L 39.847656 42.445312 L 39.847656 48.039062 L 34.253906 48.039062 Z M 34.253906 42.445312 " fill-opacity="1" fill-rule="nonzero"/><path fill="#ffffff" d="M 62.589844 45.242188 C 62.589844 45.613281 62.519531 45.96875 62.378906 46.3125 C 62.238281 46.65625 62.035156 46.957031 61.773438 47.21875 C 61.511719 47.480469 61.207031 47.683594 60.863281 47.824219 C 60.523438 47.96875 60.164062 48.039062 59.792969 48.039062 C 59.425781 48.039062 59.066406 47.96875 58.722656 47.824219 C 58.382812 47.683594 58.078125 47.480469 57.816406 47.21875 C 57.554688 46.957031 57.351562 46.65625 57.210938 46.3125 C 57.070312 45.96875 57 45.613281 57 45.242188 C 57 44.871094 57.070312 44.515625 57.210938 44.171875 C 57.351562 43.828125 57.554688 43.527344 57.816406 43.265625 C 58.078125 43.003906 58.382812 42.800781 58.722656 42.660156 C 59.066406 42.515625 59.425781 42.445312 59.792969 42.445312 C 60.164062 42.445312 60.523438 42.515625 60.863281 42.660156 C 61.207031 42.800781 61.511719 43.003906 61.773438 43.265625 C 62.035156 43.527344 62.238281 43.828125 62.378906 44.171875 C 62.519531 44.515625 62.589844 44.871094 62.589844 45.242188 Z M 62.589844 45.242188 " fill-opacity="1" fill-rule="nonzero"/><path fill="#ffffff" d="M 61.472656 66.867188 C 61.472656 67.238281 61.402344 67.597656 61.257812 67.9375 C 61.117188 68.28125 60.914062 68.582031 60.652344 68.847656 C 60.390625 69.109375 60.089844 69.308594 59.746094 69.453125 C 59.402344 69.59375 59.046875 69.664062 58.675781 69.664062 C 58.304688 69.664062 57.949219 69.59375 57.605469 69.453125 C 57.261719 69.308594 56.960938 69.109375 56.699219 68.847656 C 56.4375 68.582031 56.234375 68.28125 56.09375 67.9375 C 55.949219 67.597656 55.878906 67.238281 55.878906 66.867188 C 55.878906 66.496094 55.949219 66.140625 56.09375 65.796875 C 56.234375 65.457031 56.4375 65.152344 56.699219 64.890625 C 56.960938 64.628906 57.261719 64.425781 57.605469 64.285156 C 57.949219 64.144531 58.304688 64.070312 58.675781 64.070312 C 59.046875 64.070312 59.402344 64.144531 59.746094 64.285156 C 60.089844 64.425781 60.390625 64.628906 60.652344 64.890625 C 60.914062 65.152344 61.117188 65.457031 61.257812 65.796875 C 61.402344 66.140625 61.472656 66.496094 61.472656 66.867188 Z M 61.472656 66.867188 " fill-opacity="1" fill-rule="nonzero"/><path fill="#ffffff" d="M 17.101562 45.242188 C 17.101562 45.613281 17.03125 45.96875 16.886719 46.3125 C 16.746094 46.65625 16.542969 46.957031 16.28125 47.21875 C 16.019531 47.480469 15.71875 47.683594 15.375 47.824219 C 15.03125 47.96875 14.675781 48.039062 14.304688 48.039062 C 13.933594 48.039062 13.578125 47.96875 13.234375 47.824219 C 12.890625 47.683594 12.589844 47.480469 12.328125 47.21875 C 12.066406 46.957031 11.863281 46.65625 11.722656 46.3125 C 11.578125 45.96875 11.507812 45.613281 11.507812 45.242188 C 11.507812 44.871094 11.578125 44.515625 11.722656 44.171875 C 11.863281 43.828125 12.066406 43.527344 12.328125 43.265625 C 12.589844 43.003906 12.890625 42.800781 13.234375 42.660156 C 13.578125 42.515625 13.933594 42.445312 14.304688 42.445312 C 14.675781 42.445312 15.03125 42.515625 15.375 42.660156 C 15.71875 42.800781 16.019531 43.003906 16.28125 43.265625 C 16.542969 43.527344 16.746094 43.828125 16.886719 44.171875 C 17.03125 44.515625 17.101562 44.871094 17.101562 45.242188 Z M 17.101562 45.242188 " fill-opacity="1" fill-rule="nonzero"/><path fill="#ffffff" d="M 18.21875 66.867188 C 18.21875 67.238281 18.148438 67.597656 18.007812 67.9375 C 17.863281 68.28125 17.664062 68.582031 17.402344 68.847656 C 17.136719 69.109375 16.835938 69.308594 16.492188 69.453125 C 16.152344 69.59375 15.792969 69.664062 15.421875 69.664062 C 15.050781 69.664062 14.695312 69.59375 14.351562 69.453125 C 14.011719 69.308594 13.707031 69.109375 13.445312 68.847656 C 13.183594 68.582031 12.980469 68.28125 12.839844 67.9375 C 12.699219 67.597656 12.625 67.238281 12.625 66.867188 C 12.625 66.496094 12.699219 66.140625 12.839844 65.796875 C 12.980469 65.457031 13.183594 65.152344 13.445312 64.890625 C 13.707031 64.628906 14.011719 64.425781 14.351562 64.285156 C 14.695312 64.144531 15.050781 64.070312 15.421875 64.070312 C 15.792969 64.070312 16.152344 64.144531 16.492188 64.285156 C 16.835938 64.425781 17.136719 64.628906 17.402344 64.890625 C 17.664062 65.152344 17.863281 65.457031 18.007812 65.796875 C 18.148438 66.140625 18.21875 66.496094 18.21875 66.867188 Z M 18.21875 66.867188 " fill-opacity="1" fill-rule="nonzero"/><path fill="#ffffff" d="M 33.132812 93.15625 L 36.492188 93.15625 L 34.8125 89.242188 Z M 33.132812 93.15625 " fill-opacity="1" fill-rule="nonzero"/><path fill="#ffffff" d="M 71.914062 29.582031 L 55.507812 12.988281 L 55.507812 29.582031 Z M 71.914062 29.582031 " fill-opacity="1" fill-rule="nonzero"/><g clip-path="url(#771e7ec464)"><path fill="#ffffff" d="M 53.640625 33.3125 C 52.523438 33.3125 51.777344 32.378906 51.777344 31.445312 L 51.777344 11.871094 L 7.59375 11.871094 C 3.863281 11.871094 1.066406 14.667969 1.066406 18.394531 L 1.066406 78.988281 L 73.03125 78.988281 L 73.03125 33.3125 Z M 53.269531 50.648438 C 56.253906 53.632812 58.304688 57.359375 59.421875 61.460938 C 62.21875 61.835938 64.269531 64.070312 64.269531 67.054688 C 64.269531 70.039062 61.84375 72.648438 58.675781 72.648438 C 55.691406 72.648438 53.082031 70.039062 53.082031 67.054688 C 53.082031 64.632812 54.574219 62.765625 56.625 61.835938 C 55.691406 58.292969 54.015625 55.308594 51.40625 52.699219 C 48.980469 50.277344 46 48.410156 42.644531 47.480469 L 42.644531 49.53125 C 42.644531 50.277344 42.082031 51.023438 41.152344 51.023438 L 32.761719 51.023438 C 32.015625 51.023438 31.269531 50.460938 31.269531 49.53125 L 31.269531 47.480469 C 24.371094 49.34375 19.152344 54.75 17.289062 61.835938 C 19.339844 62.582031 20.828125 64.632812 20.828125 67.054688 C 20.828125 70.039062 18.40625 72.648438 15.238281 72.648438 C 12.066406 72.648438 9.644531 70.039062 9.644531 67.054688 C 9.644531 64.257812 11.882812 61.835938 14.492188 61.460938 C 15.984375 55.125 20.269531 49.71875 25.863281 46.734375 L 19.523438 46.734375 C 18.964844 49.15625 16.726562 51.023438 14.117188 51.023438 C 10.949219 51.023438 8.523438 48.410156 8.523438 45.429688 C 8.523438 42.257812 10.949219 39.835938 14.117188 39.835938 C 16.726562 39.835938 18.964844 41.699219 19.523438 43.9375 L 31.457031 43.9375 L 31.457031 41.140625 C 31.457031 40.394531 32.015625 39.835938 32.949219 39.835938 L 41.335938 39.835938 C 42.082031 39.835938 42.828125 40.394531 42.828125 41.140625 L 42.828125 43.9375 L 54.574219 43.9375 C 55.132812 41.515625 57.371094 39.835938 59.980469 39.835938 C 63.152344 39.835938 65.574219 42.257812 65.574219 45.429688 C 65.574219 48.410156 63.152344 51.023438 59.980469 51.023438 C 57.371094 51.023438 55.320312 49.15625 54.574219 46.734375 L 48.234375 46.734375 C 49.914062 47.667969 51.777344 48.972656 53.269531 50.648438 Z M 53.269531 50.648438 " fill-opacity="1" fill-rule="nonzero"/></g><g clip-path="url(#f368b8c022)"><path fill="#ffffff" d="M 1.066406 82.527344 L 1.066406 98.5625 C 1.066406 102.105469 4.050781 105.085938 7.59375 105.085938 L 66.691406 105.085938 C 70.234375 105.085938 73.21875 102.292969 73.21875 98.5625 L 73.21875 82.527344 Z M 38.726562 98.5625 L 37.609375 95.765625 L 32.203125 95.765625 L 30.898438 98.5625 L 27.726562 98.5625 L 33.320312 85.511719 L 36.117188 85.511719 L 41.710938 98.5625 Z M 46.371094 98.5625 L 43.386719 98.5625 L 43.386719 85.511719 L 46.371094 85.511719 Z M 46.371094 98.5625 " fill-opacity="1" fill-rule="nonzero"/></g><g fill="#ffffff" fill-opacity="1"><g transform="translate(83.189768, 86.709348)"><g><path d="M 21.015625 0.25 L 19.765625 -0.0625 L 16.6875 -0.0625 L 14.8125 0.1875 L 12.296875 -0.0625 L 11.046875 0.0625 L 9.09375 0.125 L 7.28125 -0.125 L 6.09375 0 L 4.890625 0 L 3.640625 -0.5625 L 3.015625 -2.265625 L 3.203125 -8.03125 L 3.890625 -9.15625 L 8.03125 -10.421875 L 8.71875 -12.296875 L 8.53125 -31.5625 L 7.96875 -33.25 L 6.78125 -34.015625 L 5.515625 -34.015625 L 4.140625 -34.703125 L 3.453125 -35.953125 L 3.578125 -37.140625 L 3.390625 -41.796875 L 4.015625 -43.296875 L 5.265625 -43.921875 L 6.71875 -43.921875 L 7.90625 -43.734375 L 13.046875 -43.734375 L 14.3125 -43.984375 L 15.4375 -43.859375 L 23.03125 -43.859375 L 24.15625 -43.171875 L 24.90625 -41.984375 L 24.84375 -35.765625 L 24.21875 -34.765625 L 22.90625 -34.265625 L 21.65625 -34.078125 L 20.265625 -33.515625 L 19.828125 -32.0625 L 19.578125 -25.734375 L 19.828125 -21.203125 L 19.703125 -19.828125 L 19.765625 -12.921875 L 19.578125 -11.734375 L 20.328125 -10.296875 L 21.84375 -9.78125 L 23.15625 -9.78125 L 24.53125 -9.09375 L 25.28125 -7.90625 L 25.28125 -1.6875 L 24.65625 -0.5 L 23.53125 0.125 Z M 21.015625 0.25 "/></g></g></g><g fill="#ffffff" fill-opacity="1"><g transform="translate(111.677298, 86.709348)"><g><path d="M 4.703125 -1.8125 L 4.578125 -3.140625 L 4.828125 -4.328125 L 4.703125 -5.578125 L 4.765625 -13.234375 L 4.640625 -14.375 L 4.578125 -16.875 L 4.765625 -18.140625 L 4.578125 -20.640625 L 4.765625 -21.84375 L 4.578125 -24.53125 L 4.765625 -25.734375 L 4.640625 -26.984375 L 4.828125 -28.109375 L 4.640625 -29.4375 L 4.765625 -30.6875 L 4.703125 -31.875 L 4.890625 -33.25 L 4.765625 -34.453125 L 4.578125 -35.703125 L 4.765625 -37.015625 L 4.890625 -38.21875 L 4.515625 -41.484375 L 5.328125 -43.171875 L 7.15625 -43.859375 L 13.671875 -43.984375 L 15.3125 -43.234375 L 15.9375 -41.359375 L 16.0625 -38.28125 L 15.9375 -36.890625 L 16.125 -27.109375 L 15.9375 -25.796875 L 16.125 -24.40625 L 15.9375 -22.65625 L 16 -19.515625 L 15.875 -18.203125 L 16 -16.9375 L 15.9375 -15.5625 L 16.125 -14.375 L 16.0625 -12.046875 L 16.4375 -10.671875 L 17.765625 -10.109375 L 28.796875 -9.984375 L 30.1875 -10.171875 L 31.1875 -9.53125 L 32 -8.15625 L 31.8125 -6.96875 L 32 -5.578125 L 31.875 -4.453125 L 31.8125 -3.203125 L 31.9375 -1.8125 L 31.25 -0.6875 L 29.5 -0.0625 L 7.28125 0.0625 L 5.265625 -0.6875 Z M 4.703125 -1.8125 "/></g></g></g><g fill="#ffffff" fill-opacity="1"><g transform="translate(145.435649, 86.709348)"><g><path d="M 4.703125 -1.8125 L 4.578125 -3.140625 L 4.828125 -4.328125 L 4.703125 -5.578125 L 4.765625 -13.234375 L 4.640625 -14.375 L 4.578125 -16.875 L 4.765625 -18.140625 L 4.578125 -20.640625 L 4.765625 -21.84375 L 4.578125 -24.53125 L 4.765625 -25.734375 L 4.640625 -26.984375 L 4.828125 -28.109375 L 4.640625 -29.4375 L 4.765625 -30.6875 L 4.703125 -31.875 L 4.890625 -33.25 L 4.765625 -34.453125 L 4.578125 -35.703125 L 4.765625 -37.015625 L 4.890625 -38.21875 L 4.515625 -41.484375 L 5.328125 -43.171875 L 7.15625 -43.859375 L 13.671875 -43.984375 L 15.3125 -43.234375 L 15.9375 -41.359375 L 16.0625 -38.28125 L 15.9375 -36.890625 L 16.125 -27.109375 L 15.9375 -25.796875 L 16.125 -24.40625 L 15.9375 -22.65625 L 16 -19.515625 L 15.875 -18.203125 L 16 -16.9375 L 15.9375 -15.5625 L 16.125 -14.375 L 16.0625 -12.046875 L 16.4375 -10.671875 L 17.765625 -10.109375 L 28.796875 -9.984375 L 30.1875 -10.171875 L 31.1875 -9.53125 L 32 -8.15625 L 31.8125 -6.96875 L 32 -5.578125 L 31.875 -4.453125 L 31.8125 -3.203125 L 31.9375 -1.8125 L 31.25 -0.6875 L 29.5 -0.0625 L 7.28125 0.0625 L 5.265625 -0.6875 Z M 4.703125 -1.8125 "/></g></g></g><g fill="#ffffff" fill-opacity="1"><g transform="translate(179.193999, 86.709348)"><g><path d="M 18.515625 0.5 L 17.3125 0.1875 L 15.9375 0.125 L 15 -0.375 L 13.546875 -0.8125 L 12.359375 -1.3125 L 11.421875 -2.078125 L 9.28125 -3.328125 L 8.46875 -4.140625 L 6.78125 -6.21875 L 5.515625 -8.34375 L 5.140625 -9.53125 L 4.953125 -10.734375 L 4.578125 -11.984375 L 4.578125 -13.296875 L 4.390625 -15.125 L 4.453125 -19.640625 L 4.265625 -22.15625 L 4.390625 -23.34375 L 4.328125 -24.59375 L 4.453125 -25.796875 L 4.265625 -27.171875 L 4.515625 -28.359375 L 4.203125 -32.125 L 4.390625 -34.515625 L 4.140625 -37.140625 L 4.453125 -38.21875 L 4.453125 -41.984375 L 5.015625 -43.234375 L 6.28125 -43.921875 L 12.859375 -43.859375 L 14.375 -43.296875 L 15.0625 -42.109375 L 15.0625 -40.78125 L 14.75 -38.90625 L 14.75 -37.71875 L 14.9375 -35.890625 L 14.9375 -30.875 L 14.8125 -29.75 L 14.875 -25.859375 L 15.0625 -24.59375 L 15.1875 -13.546875 L 15.5625 -12.234375 L 16.3125 -11.359375 L 17.25 -10.546875 L 18.640625 -9.859375 L 19.765625 -9.53125 L 21.84375 -9.40625 L 23.53125 -9.53125 L 26.046875 -10.359375 L 27.046875 -11.296875 L 27.609375 -12.171875 L 28.171875 -13.359375 L 28.421875 -15.375 L 28.359375 -18.578125 L 28.484375 -19.828125 L 28.421875 -22.09375 L 28.546875 -23.46875 L 28.296875 -24.59375 L 28.484375 -29.5625 L 28.296875 -30.875 L 28.421875 -32.1875 L 28.359375 -34.640625 L 28.484375 -35.890625 L 28.421875 -42.046875 L 29.046875 -43.421875 L 30.4375 -43.984375 L 36.328125 -43.921875 L 38.34375 -43.359375 L 38.84375 -41.984375 L 39.03125 -40.90625 L 38.96875 -35.828125 L 39.15625 -34.578125 L 38.96875 -33.390625 L 39.03125 -32 L 38.90625 -30.0625 L 38.96875 -28.296875 L 38.84375 -26.984375 L 38.90625 -25.796875 L 39.15625 -24.53125 L 39.15625 -23.40625 L 38.90625 -22.09375 L 39.09375 -17 L 38.65625 -10.671875 L 38.21875 -9.46875 L 37.59375 -8.40625 L 37.203125 -7.15625 L 36.390625 -6.21875 L 35.703125 -5.078125 L 32.875 -2.578125 L 31.875 -1.875 L 30.75 -1.375 L 29.75 -0.75 L 28.484375 -0.4375 L 27.171875 0.0625 L 24.65625 0.625 L 21.515625 0.75 Z M 18.515625 0.5 "/></g></g></g><g fill="#ffffff" fill-opacity="1"><g transform="translate(222.490025, 86.709348)"><g><path d="M 18.203125 0.5 L 15.5625 0.3125 L 14.375 -0.125 L 12.984375 -0.3125 L 8.46875 -2.390625 L 7.40625 -3.078125 L 5.578125 -4.890625 L 4.015625 -6.84375 L 3.015625 -9.34375 L 2.765625 -10.484375 L 2.640625 -11.859375 L 3.078125 -13.171875 L 4.328125 -13.75 L 5.578125 -13.671875 L 6.84375 -13.8125 L 11.609375 -13.671875 L 12.859375 -13.171875 L 13.8125 -11.921875 L 14.75 -11.046875 L 15.875 -10.359375 L 16.8125 -9.921875 L 18.265625 -9.53125 L 20.140625 -9.40625 L 21.90625 -9.46875 L 24.21875 -10.171875 L 25.21875 -10.734375 L 26.234375 -11.609375 L 26.609375 -13.234375 L 26.296875 -14.875 L 25.40625 -15.625 L 23.15625 -16.5625 L 21.90625 -16.625 L 20.765625 -16.8125 L 15.625 -17.1875 L 13.359375 -17.703125 L 9.78125 -18.890625 L 7.59375 -20.203125 L 5.828125 -21.84375 L 4.265625 -23.90625 L 3.453125 -26.109375 L 3.015625 -27.859375 L 2.953125 -32.0625 L 3.828125 -35.703125 L 4.453125 -36.703125 L 4.890625 -37.84375 L 5.703125 -38.65625 L 6.40625 -39.71875 L 7.53125 -40.46875 L 8.40625 -41.296875 L 9.65625 -42.046875 L 10.671875 -42.421875 L 11.671875 -43.046875 L 12.796875 -43.484375 L 17.765625 -44.484375 L 21.265625 -44.546875 L 22.65625 -44.234375 L 23.78125 -44.109375 L 25.09375 -43.859375 L 28.546875 -42.671875 L 32.5625 -39.90625 L 33.390625 -38.96875 L 34.015625 -37.96875 L 34.828125 -36.953125 L 35.828125 -34.703125 L 36.328125 -32.25 L 35.765625 -31.0625 L 34.578125 -30.3125 L 33.390625 -30.4375 L 32.25 -30.3125 L 28.109375 -30.4375 L 26.171875 -31.0625 L 24.09375 -33.25 L 23.15625 -34.015625 L 21.78125 -34.515625 L 17.765625 -34.390625 L 16.625 -34.140625 L 15.75 -33.765625 L 14.6875 -32.9375 L 14 -32.0625 L 13.8125 -30.4375 L 13.875 -28.734375 L 14.875 -27.734375 L 15.8125 -27.234375 L 18.453125 -26.296875 L 24.78125 -25.46875 L 29.9375 -24.21875 L 33.25 -22.71875 L 34.328125 -21.84375 L 35.828125 -19.890625 L 37.078125 -17.5625 L 37.40625 -16.375 L 37.59375 -15.125 L 37.53125 -11.234375 L 37.34375 -10.109375 L 36.953125 -8.84375 L 36.453125 -7.71875 L 35.203125 -5.703125 L 33.453125 -3.703125 L 31.4375 -2.328125 L 28.171875 -0.5625 L 22.03125 0.625 L 20.015625 0.6875 Z M 18.203125 0.5 "/></g></g></g><g fill="#ffffff" fill-opacity="1"><g transform="translate(262.523162, 86.709348)"><g><path d="M 12.046875 -1.9375 L 11.984375 -6.84375 L 12.109375 -8.09375 L 11.921875 -11.921875 L 11.984375 -13.234375 L 11.921875 -14.5 L 12.171875 -16.375 L 11.984375 -18.203125 L 11.984375 -20.703125 L 12.109375 -21.96875 L 11.984375 -23.15625 L 12.171875 -25.09375 L 11.984375 -32 L 11.359375 -33.1875 L 10.234375 -33.890625 L 4.640625 -33.953125 L 3.015625 -33.765625 L 1.75 -34.390625 L 1.0625 -35.765625 L 1.125 -42.046875 L 1.75 -43.296875 L 3.140625 -43.921875 L 21.84375 -43.796875 L 23.28125 -43.984375 L 24.53125 -43.984375 L 25.796875 -43.859375 L 27.046875 -43.859375 L 28.421875 -44.046875 L 29.625 -44.046875 L 30.625 -43.921875 L 32.125 -44.046875 L 33.390625 -43.421875 L 34.015625 -42.171875 L 33.890625 -37.015625 L 34.015625 -35.703125 L 33.390625 -34.453125 L 31.9375 -33.890625 L 28.484375 -33.953125 L 27.359375 -33.828125 L 26.109375 -33.890625 L 25.03125 -33.828125 L 23.65625 -33.25 L 23.15625 -32.125 L 23.28125 -30.75 L 23.09375 -29.5 L 23.34375 -17 L 23.15625 -14.375 L 23.28125 -13.234375 L 23.15625 -9.40625 L 22.96875 -8.09375 L 23.15625 -7.03125 L 23.21875 -4.515625 L 23.09375 -3.078125 L 23.15625 -1.875 L 22.65625 -0.625 L 21.390625 -0.125 L 17.5 -0.125 L 16.3125 0 L 15.0625 -0.125 L 13.875 0 L 12.546875 -0.625 Z M 12.046875 -1.9375 "/></g></g></g><g fill="#ffffff" fill-opacity="1"><g transform="translate(297.599218, 86.709348)"><g><path d="M 4.828125 -2.015625 L 4.640625 -6.90625 L 4.765625 -8.21875 L 4.515625 -11.859375 L 4.703125 -14.4375 L 4.515625 -15.8125 L 4.578125 -18.203125 L 4.703125 -19.515625 L 4.703125 -22.65625 L 4.515625 -24.46875 L 4.703125 -42.046875 L 5.203125 -43.359375 L 6.40625 -43.921875 L 7.78125 -43.859375 L 8.96875 -44.046875 L 11.546875 -43.796875 L 12.734375 -43.984375 L 16.5 -43.859375 L 17.5625 -43.984375 L 18.953125 -43.859375 L 20.203125 -43.984375 L 21.59375 -43.921875 L 23.40625 -43.984375 L 24.96875 -43.859375 L 30.1875 -42.796875 L 32.375 -41.671875 L 35.515625 -39.28125 L 36.078125 -38.34375 L 36.953125 -37.40625 L 38.65625 -33.953125 L 38.96875 -32.6875 L 39.15625 -31.5 L 39.46875 -30.3125 L 39.40625 -25.34375 L 38.71875 -22.96875 L 38.28125 -21.90625 L 37.59375 -20.765625 L 37.140625 -19.578125 L 36.390625 -18.515625 L 34.640625 -16.8125 L 33.953125 -15.5 L 34.140625 -14 L 36.015625 -10.734375 L 36.828125 -9.71875 L 37.46875 -8.59375 L 38.21875 -7.46875 L 38.78125 -6.40625 L 40.78125 -3.328125 L 41.609375 -1.75 L 41.359375 -0.4375 L 40.03125 -0.125 L 38.65625 0 L 36.140625 0 L 34.890625 -0.125 L 33.515625 0 L 31.25 -0.125 L 29.6875 -0.5 L 28.421875 -1.625 L 27.671875 -2.640625 L 27.109375 -3.703125 L 26.296875 -4.890625 L 24.53125 -8.03125 L 24.09375 -9.21875 L 22.46875 -11.421875 L 21.453125 -12.484375 L 19.890625 -12.984375 L 18.765625 -12.921875 L 17.625 -12.921875 L 16.375 -12.296875 L 15.8125 -11.046875 L 15.9375 -7.15625 L 15.75 -4.453125 L 16 -3.140625 L 15.875 -1.8125 L 15.4375 -0.625 L 13.484375 0 L 11.609375 0 L 10.296875 -0.125 L 7.71875 0.0625 L 6.53125 0 L 5.265625 -0.625 Z M 17.625 -23.09375 L 19.015625 -23.09375 L 20.265625 -22.90625 L 25.15625 -23.34375 L 26.109375 -23.78125 L 26.859375 -24.53125 L 27.546875 -25.609375 L 28.046875 -26.859375 L 28.234375 -28.546875 L 28.109375 -30.375 L 27.671875 -31.375 L 27.046875 -32.3125 L 25.09375 -33.515625 L 22.21875 -33.890625 L 18.765625 -33.953125 L 17.765625 -33.890625 L 16.5 -33.25 L 15.75 -32 L 15.9375 -24.96875 L 16.5625 -23.65625 Z M 17.625 -23.09375 "/></g></g></g><g fill="#ffffff" fill-opacity="1"><g transform="translate(341.083487, 86.709348)"><g><path d="M 0.8125 -1.6875 L 1.5625 -4.328125 L 2.140625 -5.578125 L 2.890625 -6.59375 L 4.703125 -11.171875 L 6.46875 -14.4375 L 6.90625 -15.6875 L 7.46875 -16.6875 L 7.84375 -18.015625 L 8.71875 -19.640625 L 9.15625 -20.828125 L 10.109375 -22.46875 L 11.109375 -24.71875 L 11.796875 -25.859375 L 12.109375 -26.921875 L 15.625 -34.828125 L 16.3125 -35.953125 L 19.015625 -41.609375 L 19.390625 -42.734375 L 20.578125 -43.859375 L 22.59375 -44.484375 L 24.71875 -43.921875 L 25.859375 -42.734375 L 26.234375 -41.546875 L 26.796875 -40.59375 L 27.796875 -38.21875 L 29.046875 -35.890625 L 30 -33.703125 L 30.3125 -32.6875 L 31.4375 -30.3125 L 31.8125 -29.109375 L 33.0625 -26.921875 L 33.390625 -25.734375 L 34.015625 -24.65625 L 34.515625 -23.59375 L 35.203125 -22.46875 L 35.578125 -21.203125 L 36.140625 -20.265625 L 36.578125 -19.015625 L 37.140625 -17.953125 L 37.65625 -16.6875 L 38.34375 -15.6875 L 39.21875 -13.359375 L 39.84375 -12.296875 L 40.28125 -11.109375 L 41.359375 -8.84375 L 41.734375 -7.65625 L 42.359375 -6.71875 L 42.734375 -5.453125 L 43.546875 -4.390625 L 43.984375 -3.265625 L 44.359375 -1.6875 L 44.109375 -0.375 L 42.984375 0 L 39.09375 0.125 L 36.890625 -0.0625 L 35.765625 0.0625 L 34.140625 -0.5625 L 33.0625 -1.5625 L 32.375 -2.703125 L 32.0625 -3.828125 L 30.75 -4.828125 L 28.671875 -5.515625 L 25.734375 -5.390625 L 24.40625 -5.515625 L 23.28125 -5.515625 L 21.84375 -5.328125 L 20.515625 -5.515625 L 17 -5.453125 L 15.75 -5.578125 L 14.25 -4.953125 L 13.171875 -3.765625 L 12.109375 -1.625 L 10.984375 -0.5 L 9.53125 0.125 L 7.90625 -0.0625 L 2.390625 -0.0625 L 1.125 -0.375 Z M 20.203125 -15.5 L 25.09375 -15.5625 L 26.171875 -16.0625 L 26.296875 -17.1875 L 25.859375 -18.328125 L 25.21875 -19.578125 L 24.96875 -20.578125 L 24.28125 -21.65625 L 23.46875 -24.09375 L 22.71875 -24.59375 L 21.90625 -23.96875 L 21.328125 -22.96875 L 18.828125 -17.25 L 19.015625 -16 Z M 20.203125 -15.5 "/></g></g></g><g fill="#ffffff" fill-opacity="1"><g transform="translate(386.638436, 86.709348)"><g><path d="M 12.046875 -1.9375 L 11.984375 -6.84375 L 12.109375 -8.09375 L 11.921875 -11.921875 L 11.984375 -13.234375 L 11.921875 -14.5 L 12.171875 -16.375 L 11.984375 -18.203125 L 11.984375 -20.703125 L 12.109375 -21.96875 L 11.984375 -23.15625 L 12.171875 -25.09375 L 11.984375 -32 L 11.359375 -33.1875 L 10.234375 -33.890625 L 4.640625 -33.953125 L 3.015625 -33.765625 L 1.75 -34.390625 L 1.0625 -35.765625 L 1.125 -42.046875 L 1.75 -43.296875 L 3.140625 -43.921875 L 21.84375 -43.796875 L 23.28125 -43.984375 L 24.53125 -43.984375 L 25.796875 -43.859375 L 27.046875 -43.859375 L 28.421875 -44.046875 L 29.625 -44.046875 L 30.625 -43.921875 L 32.125 -44.046875 L 33.390625 -43.421875 L 34.015625 -42.171875 L 33.890625 -37.015625 L 34.015625 -35.703125 L 33.390625 -34.453125 L 31.9375 -33.890625 L 28.484375 -33.953125 L 27.359375 -33.828125 L 26.109375 -33.890625 L 25.03125 -33.828125 L 23.65625 -33.25 L 23.15625 -32.125 L 23.28125 -30.75 L 23.09375 -29.5 L 23.34375 -17 L 23.15625 -14.375 L 23.28125 -13.234375 L 23.15625 -9.40625 L 22.96875 -8.09375 L 23.15625 -7.03125 L 23.21875 -4.515625 L 23.09375 -3.078125 L 23.15625 -1.875 L 22.65625 -0.625 L 21.390625 -0.125 L 17.5 -0.125 L 16.3125 0 L 15.0625 -0.125 L 13.875 0 L 12.546875 -0.625 Z M 12.046875 -1.9375 "/></g></g></g><g fill="#ffffff" fill-opacity="1"><g transform="translate(421.714492, 86.709348)"><g><path d="M 23.46875 0.75 L 22.15625 0.625 L 19.890625 0.125 L 18.515625 0 L 16.6875 -0.625 L 11.796875 -3.140625 L 9.71875 -4.765625 L 9.03125 -5.578125 L 8.09375 -6.46875 L 7.28125 -7.46875 L 6.53125 -8.21875 L 3.640625 -13.9375 L 3.078125 -16.3125 L 2.953125 -17.5 L 2.640625 -18.640625 L 2.453125 -19.953125 L 2.640625 -25.03125 L 3.703125 -29.875 L 4.640625 -32.25 L 6.59375 -35.578125 L 9.65625 -39.15625 L 11.796875 -40.71875 L 12.921875 -41.296875 L 13.875 -41.984375 L 18.578125 -43.734375 L 25.21875 -44.671875 L 26.921875 -44.609375 L 30.5625 -43.984375 L 35.390625 -42.484375 L 36.328125 -41.796875 L 38.21875 -40.96875 L 39.65625 -39.96875 L 41.484375 -38.40625 L 43.234375 -36.453125 L 44.609375 -34.578125 L 45.8125 -32.25 L 47.375 -27.546875 L 47.8125 -24.96875 L 48 -21.84375 L 47.75 -20.015625 L 47.6875 -18.703125 L 47.375 -17.4375 L 47.3125 -16.3125 L 46.8125 -13.9375 L 45.875 -11.546875 L 43.109375 -7.34375 L 42.234375 -6.46875 L 41.421875 -5.328125 L 39.65625 -3.828125 L 38.46875 -3.265625 L 37.53125 -2.515625 L 35.453125 -1.375 L 30.75 0.1875 L 26.984375 0.6875 Z M 26.984375 -10.359375 L 28.234375 -10.609375 L 29.171875 -11.046875 L 30.3125 -11.359375 L 33.3125 -13.421875 L 34.203125 -14.4375 L 34.578125 -15.375 L 35.265625 -16.5 L 35.703125 -17.625 L 36.203125 -19.953125 L 36.328125 -23.78125 L 36.140625 -24.90625 L 35.578125 -26.109375 L 34.828125 -28.484375 L 32.375 -31.0625 L 30.4375 -32.4375 L 29.296875 -32.9375 L 28.171875 -33.1875 L 25.15625 -33.578125 L 23.40625 -33.453125 L 20.953125 -32.8125 L 20.140625 -32.5 L 17 -30.375 L 15.5 -28.359375 L 15.125 -27.234375 L 14.625 -26.109375 L 14.4375 -24.90625 L 14.125 -23.78125 L 14.125 -19.953125 L 14.625 -17.625 L 15.1875 -16.5 L 15.5 -15.5 L 16.375 -14.3125 L 17.1875 -13.421875 L 18.890625 -12.046875 L 19.890625 -11.484375 L 22.15625 -10.546875 L 23.53125 -10.359375 Z M 26.984375 -10.359375 "/></g></g></g><g fill="#ffffff" fill-opacity="1"><g transform="translate(472.038279, 86.709348)"><g><path d="M 4.828125 -2.015625 L 4.640625 -6.90625 L 4.765625 -8.21875 L 4.515625 -11.859375 L 4.703125 -14.4375 L 4.515625 -15.8125 L 4.578125 -18.203125 L 4.703125 -19.515625 L 4.703125 -22.65625 L 4.515625 -24.46875 L 4.703125 -42.046875 L 5.203125 -43.359375 L 6.40625 -43.921875 L 7.78125 -43.859375 L 8.96875 -44.046875 L 11.546875 -43.796875 L 12.734375 -43.984375 L 16.5 -43.859375 L 17.5625 -43.984375 L 18.953125 -43.859375 L 20.203125 -43.984375 L 21.59375 -43.921875 L 23.40625 -43.984375 L 24.96875 -43.859375 L 30.1875 -42.796875 L 32.375 -41.671875 L 35.515625 -39.28125 L 36.078125 -38.34375 L 36.953125 -37.40625 L 38.65625 -33.953125 L 38.96875 -32.6875 L 39.15625 -31.5 L 39.46875 -30.3125 L 39.40625 -25.34375 L 38.71875 -22.96875 L 38.28125 -21.90625 L 37.59375 -20.765625 L 37.140625 -19.578125 L 36.390625 -18.515625 L 34.640625 -16.8125 L 33.953125 -15.5 L 34.140625 -14 L 36.015625 -10.734375 L 36.828125 -9.71875 L 37.46875 -8.59375 L 38.21875 -7.46875 L 38.78125 -6.40625 L 40.78125 -3.328125 L 41.609375 -1.75 L 41.359375 -0.4375 L 40.03125 -0.125 L 38.65625 0 L 36.140625 0 L 34.890625 -0.125 L 33.515625 0 L 31.25 -0.125 L 29.6875 -0.5 L 28.421875 -1.625 L 27.671875 -2.640625 L 27.109375 -3.703125 L 26.296875 -4.890625 L 24.53125 -8.03125 L 24.09375 -9.21875 L 22.46875 -11.421875 L 21.453125 -12.484375 L 19.890625 -12.984375 L 18.765625 -12.921875 L 17.625 -12.921875 L 16.375 -12.296875 L 15.8125 -11.046875 L 15.9375 -7.15625 L 15.75 -4.453125 L 16 -3.140625 L 15.875 -1.8125 L 15.4375 -0.625 L 13.484375 0 L 11.609375 0 L 10.296875 -0.125 L 7.71875 0.0625 L 6.53125 0 L 5.265625 -0.625 Z M 17.625 -23.09375 L 19.015625 -23.09375 L 20.265625 -22.90625 L 25.15625 -23.34375 L 26.109375 -23.78125 L 26.859375 -24.53125 L 27.546875 -25.609375 L 28.046875 -26.859375 L 28.234375 -28.546875 L 28.109375 -30.375 L 27.671875 -31.375 L 27.046875 -32.3125 L 25.09375 -33.515625 L 22.21875 -33.890625 L 18.765625 -33.953125 L 17.765625 -33.890625 L 16.5 -33.25 L 15.75 -32 L 15.9375 -24.96875 L 16.5625 -23.65625 Z M 17.625 -23.09375 "/></g></g></g></svg>