<svg xmlns="http://www.w3.org/2000/svg" xmlns:xlink="http://www.w3.org/1999/xlink" width="290" zoomAndPan="magnify" viewBox="0 0 217.5 96.749999" height="129" preserveAspectRatio="xMidYMid meet" version="1.0"><defs><g/><clipPath id="94a41c3fae"><path d="M 82 13 L 186 13 L 186 90 L 82 90 Z M 82 13 " clip-rule="nonzero"/></clipPath><clipPath id="26300ed73a"><path d="M 77.222656 24.296875 L 177.550781 -0.0195312 L 194.996094 71.953125 L 94.667969 96.269531 Z M 77.222656 24.296875 " clip-rule="nonzero"/></clipPath><clipPath id="e5d4d7929f"><path d="M 77.222656 24.296875 L 177.550781 -0.0195312 L 194.996094 71.953125 L 94.667969 96.269531 Z M 77.222656 24.296875 " clip-rule="nonzero"/></clipPath><clipPath id="33a1c2c76e"><path d="M 0.03125 39.714844 L 18.734375 39.714844 L 18.734375 58.414062 L 0.03125 58.414062 Z M 0.03125 39.714844 " clip-rule="nonzero"/></clipPath></defs><g clip-path="url(#94a41c3fae)"><g clip-path="url(#26300ed73a)"><g clip-path="url(#e5d4d7929f)"><path fill="#ff914d" d="M 183.574219 34.011719 C 183.949219 35.433594 184.734375 36.28125 185.382812 36.757812 C 184.40625 38.078125 183.425781 39.390625 182.441406 40.699219 C 181.367188 39.894531 179.621094 38.179688 178.859375 35.292969 C 177.050781 37.714844 175.21875 40.117188 173.367188 42.507812 C 171.25 45.234375 169.105469 47.9375 166.925781 50.621094 C 164.746094 53.300781 162.535156 55.957031 160.28125 58.582031 C 158.027344 61.207031 155.730469 63.800781 153.382812 66.351562 C 151.027344 68.902344 148.621094 71.40625 146.128906 73.847656 C 143.636719 76.285156 141.058594 78.65625 138.328125 80.898438 C 135.59375 83.128906 132.726562 85.261719 129.460938 87.015625 C 127.824219 87.878906 126.078125 88.652344 124.105469 89.132812 C 123.117188 89.363281 122.066406 89.515625 120.953125 89.5 C 120.398438 89.496094 119.828125 89.433594 119.253906 89.332031 C 118.679688 89.21875 118.105469 89.050781 117.546875 88.824219 C 116.992188 88.589844 116.457031 88.300781 115.960938 87.964844 C 115.515625 87.617188 115.058594 87.300781 114.660156 86.882812 C 114.238281 86.5 113.886719 86.042969 113.53125 85.59375 C 113.375 85.355469 113.21875 85.113281 113.066406 84.875 C 112.988281 84.753906 112.921875 84.628906 112.859375 84.503906 L 112.667969 84.125 C 112.179688 83.117188 111.851562 82.054688 111.6875 81.027344 L 111.617188 80.636719 L 111.578125 80.253906 C 111.550781 80 111.519531 79.742188 111.5 79.492188 C 111.488281 78.992188 111.449219 78.484375 111.472656 78 C 111.515625 76.035156 111.820312 74.179688 112.238281 72.394531 C 112.65625 70.613281 113.183594 68.894531 113.765625 67.210938 C 114.933594 63.851562 116.3125 60.632812 117.742188 57.46875 C 119.175781 54.300781 120.675781 51.191406 122.15625 48.097656 C 123.640625 45.003906 125.109375 41.921875 126.476562 38.828125 C 127.835938 35.734375 129.117188 32.617188 130.039062 29.5 C 130.496094 27.945312 130.855469 26.390625 131.027344 24.894531 L 131.097656 24.0625 L 131.101562 23.796875 C 131.105469 23.617188 131.113281 23.4375 131.113281 23.261719 L 131.089844 22.746094 C 131.042969 22.074219 130.929688 21.449219 130.738281 20.917969 C 130.535156 20.394531 130.265625 19.96875 129.914062 19.605469 C 129.824219 19.519531 129.746094 19.417969 129.632812 19.34375 L 129.480469 19.222656 C 129.425781 19.183594 129.382812 19.136719 129.3125 19.097656 C 129.183594 19.019531 129.054688 18.941406 128.929688 18.855469 L 128.523438 18.652344 C 127.976562 18.398438 127.382812 18.226562 126.746094 18.125 C 126.109375 18.023438 125.425781 18.027344 124.726562 18.078125 C 123.320312 18.183594 121.839844 18.582031 120.375 19.109375 C 118.910156 19.65625 117.457031 20.347656 116.027344 21.121094 C 113.171875 22.683594 110.421875 24.578125 107.761719 26.605469 C 105.097656 28.640625 102.527344 30.820312 100.019531 33.089844 C 97.515625 35.363281 95.078125 37.71875 92.699219 40.140625 C 91.511719 41.347656 90.339844 42.574219 89.179688 43.8125 C 88.601562 44.433594 88.03125 45.058594 87.460938 45.683594 C 86.898438 46.308594 86.324219 46.949219 85.792969 47.5625 L 82.089844 44.382812 C 82.6875 43.695312 83.257812 43.058594 83.84375 42.410156 C 84.429688 41.761719 85.019531 41.121094 85.613281 40.484375 C 86.796875 39.214844 88 37.957031 89.21875 36.71875 C 91.65625 34.238281 94.160156 31.820312 96.746094 29.476562 C 99.328125 27.132812 102 24.867188 104.796875 22.726562 C 107.597656 20.59375 110.519531 18.574219 113.691406 16.835938 C 115.28125 15.972656 116.933594 15.183594 118.6875 14.53125 C 120.453125 13.894531 122.316406 13.371094 124.339844 13.210938 C 125.351562 13.140625 126.394531 13.132812 127.457031 13.296875 C 128.519531 13.460938 129.589844 13.765625 130.597656 14.234375 C 130.847656 14.359375 131.097656 14.480469 131.339844 14.613281 L 132.046875 15.058594 C 132.164062 15.125 132.28125 15.222656 132.402344 15.3125 L 132.75 15.589844 C 132.988281 15.765625 133.199219 15.988281 133.414062 16.203125 C 134.261719 17.066406 134.90625 18.136719 135.3125 19.21875 C 135.707031 20.304688 135.886719 21.386719 135.960938 22.425781 L 135.992188 23.199219 C 135.996094 23.453125 135.984375 23.699219 135.980469 23.953125 L 135.96875 24.328125 L 135.941406 24.691406 L 135.878906 25.421875 C 135.65625 27.339844 135.230469 29.140625 134.71875 30.878906 C 133.6875 34.351562 132.34375 37.601562 130.941406 40.796875 C 129.53125 43.984375 128.042969 47.105469 126.558594 50.207031 C 125.074219 53.304688 123.589844 56.386719 122.1875 59.480469 C 120.789062 62.570312 119.464844 65.679688 118.378906 68.808594 C 117.835938 70.371094 117.359375 71.941406 116.992188 73.503906 C 116.621094 75.0625 116.382812 76.617188 116.355469 78.089844 C 116.332031 78.460938 116.367188 78.8125 116.371094 79.171875 C 116.382812 79.347656 116.40625 79.515625 116.421875 79.6875 L 116.449219 79.945312 L 116.496094 80.191406 C 116.597656 80.859375 116.800781 81.453125 117.054688 81.988281 L 117.152344 82.183594 C 117.183594 82.253906 117.214844 82.320312 117.257812 82.375 C 117.339844 82.496094 117.417969 82.617188 117.492188 82.738281 C 117.675781 82.957031 117.839844 83.191406 118.058594 83.382812 C 118.25 83.597656 118.511719 83.757812 118.734375 83.949219 C 118.949219 84.09375 119.175781 84.210938 119.410156 84.316406 C 119.648438 84.410156 119.902344 84.484375 120.167969 84.539062 C 120.441406 84.585938 120.726562 84.617188 121.027344 84.621094 C 121.632812 84.628906 122.296875 84.542969 122.980469 84.382812 C 124.351562 84.054688 125.78125 83.445312 127.171875 82.703125 C 129.96875 81.207031 132.65625 79.234375 135.234375 77.125 C 137.8125 75.003906 140.296875 72.722656 142.714844 70.355469 C 145.136719 67.992188 147.488281 65.542969 149.792969 63.042969 C 152.097656 60.542969 154.359375 57.992188 156.578125 55.402344 C 158.800781 52.816406 160.984375 50.195312 163.136719 47.542969 C 165.292969 44.890625 167.414062 42.214844 169.511719 39.515625 C 171.34375 37.148438 173.160156 34.769531 174.949219 32.371094 C 171.972656 32.441406 169.855469 31.210938 168.785156 30.40625 C 169.738281 29.140625 170.683594 27.875 171.625 26.601562 C 172.269531 27.078125 173.304688 27.589844 174.761719 27.542969 C 176.210938 27.496094 178.101562 26.878906 180.378906 25.105469 L 184.207031 27.804688 C 183.230469 30.609375 183.199219 32.585938 183.574219 34.011719 Z M 183.574219 34.011719 " fill-opacity="1" fill-rule="nonzero"/></g></g></g><g clip-path="url(#33a1c2c76e)"><path fill="#ff914d" d="M 18.667969 46.496094 L 18.667969 51.613281 C 12.472656 53.425781 11.546875 56.640625 11.546875 58.394531 L 6.214844 58.394531 C 6.214844 56.929688 6.554688 54.277344 8.589844 51.71875 L 0.0390625 51.71875 L 0.0390625 46.390625 L 8.589844 46.390625 C 6.554688 43.832031 6.214844 41.179688 6.214844 39.714844 L 11.546875 39.714844 C 11.546875 41.46875 12.472656 44.683594 18.667969 46.496094 Z M 18.667969 46.496094 " fill-opacity="1" fill-rule="nonzero"/></g><g fill="#000000" fill-opacity="1"><g transform="translate(31.512378, 57.340595)"><g><path d="M 10.734375 0.25 C 7.441406 0.25 4.867188 -0.503906 3.015625 -2.015625 C 1.171875 -3.535156 0.25 -5.851562 0.25 -8.96875 C 0.25 -12.070312 1.203125 -14.378906 3.109375 -15.890625 C 5.023438 -17.398438 7.820312 -18.15625 11.5 -18.15625 C 18.65625 -18.15625 22.378906 -15.691406 22.671875 -10.765625 L 15.875 -10.765625 C 15.757812 -11.222656 15.351562 -11.628906 14.65625 -11.984375 C 13.96875 -12.347656 12.914062 -12.53125 11.5 -12.53125 C 10.1875 -12.53125 9.203125 -12.359375 8.546875 -12.015625 C 7.890625 -11.671875 7.453125 -11.210938 7.234375 -10.640625 C 7.015625 -10.078125 6.90625 -9.4375 6.90625 -8.71875 C 6.90625 -8 7.015625 -7.320312 7.234375 -6.6875 C 7.453125 -6.0625 7.894531 -5.554688 8.5625 -5.171875 C 9.226562 -4.785156 10.207031 -4.59375 11.5 -4.59375 C 12.78125 -4.59375 13.800781 -4.703125 14.5625 -4.921875 C 15.320312 -5.148438 15.757812 -5.5625 15.875 -6.15625 L 11.0625 -6.15625 L 11.0625 -9.734375 L 22.671875 -9.734375 L 22.671875 0 L 18.84375 0 L 18.359375 -2.578125 C 17.609375 -1.691406 16.617188 -1 15.390625 -0.5 C 14.160156 0 12.609375 0.25 10.734375 0.25 Z M 10.734375 0.25 "/></g></g></g><g fill="#000000" fill-opacity="1"><g transform="translate(54.431814, 57.340595)"><g><path d="M 0.515625 0 L 0.515625 -17.890625 L 7.15625 -17.890625 L 7.15625 -11.765625 L 17.640625 -11.765625 L 17.640625 -17.890625 L 24.28125 -17.890625 L 24.28125 0 L 17.640625 0 L 17.640625 -6.140625 L 7.15625 -6.140625 L 7.15625 0 Z M 0.515625 0 "/></g></g></g><g fill="#000000" fill-opacity="1"><g transform="translate(79.216498, 57.340595)"><g><path d="M 0.515625 0 L 0.515625 -17.890625 L 7.15625 -17.890625 L 7.15625 0 Z M 0.515625 0 "/></g></g></g><g fill="#000000" fill-opacity="1"><g transform="translate(86.881867, 57.340595)"><g><path d="M 0.515625 0 L 0.515625 -17.890625 L 7.15625 -17.890625 L 7.15625 -5.625 L 18.921875 -5.625 L 18.921875 0 Z M 0.515625 0 "/></g></g></g><g fill="#000000" fill-opacity="1"><g transform="translate(106.045285, 57.340595)"><g><path d="M 10.734375 0.25 C 7.441406 0.25 4.867188 -0.503906 3.015625 -2.015625 C 1.171875 -3.535156 0.25 -5.851562 0.25 -8.96875 C 0.25 -12.070312 1.203125 -14.378906 3.109375 -15.890625 C 5.023438 -17.398438 7.820312 -18.15625 11.5 -18.15625 C 18.65625 -18.15625 22.378906 -15.691406 22.671875 -10.765625 L 15.875 -10.765625 C 15.757812 -11.222656 15.351562 -11.628906 14.65625 -11.984375 C 13.96875 -12.347656 12.914062 -12.53125 11.5 -12.53125 C 10.1875 -12.53125 9.203125 -12.359375 8.546875 -12.015625 C 7.890625 -11.671875 7.453125 -11.210938 7.234375 -10.640625 C 7.015625 -10.078125 6.90625 -9.4375 6.90625 -8.71875 C 6.90625 -8 7.015625 -7.320312 7.234375 -6.6875 C 7.453125 -6.0625 7.894531 -5.554688 8.5625 -5.171875 C 9.226562 -4.785156 10.207031 -4.59375 11.5 -4.59375 C 12.78125 -4.59375 13.800781 -4.703125 14.5625 -4.921875 C 15.320312 -5.148438 15.757812 -5.5625 15.875 -6.15625 L 11.0625 -6.15625 L 11.0625 -9.734375 L 22.671875 -9.734375 L 22.671875 0 L 18.84375 0 L 18.359375 -2.578125 C 17.609375 -1.691406 16.617188 -1 15.390625 -0.5 C 14.160156 0 12.609375 0.25 10.734375 0.25 Z M 10.734375 0.25 "/></g></g></g><g fill="#000000" fill-opacity="1"><g transform="translate(128.964721, 57.340595)"><g><path d="M 0.25 0 L 7.671875 -17.890625 L 17.53125 -17.890625 L 24.953125 0 L 17.640625 0 L 16.40625 -3.21875 L 8.796875 -3.21875 L 7.5625 0 Z M 10.53125 -7.828125 L 14.671875 -7.828125 L 12.609375 -13.296875 Z M 10.53125 -7.828125 "/></g></g></g><g fill="#ff914d" fill-opacity="1"><g transform="translate(31.512378, 72.602688)"><g><path d="M 3.390625 0 L 3.390625 -5.25 L 0.109375 -5.25 L 0.109375 -7.640625 L 9.5 -7.640625 L 9.5 -5.25 L 6.21875 -5.25 L 6.21875 0 Z M 3.390625 0 "/></g></g></g><g fill="#ff914d" fill-opacity="1"><g transform="translate(41.120162, 72.602688)"><g><path d="M 0.21875 0 L 0.21875 -7.640625 L 8.296875 -7.640625 L 8.296875 -5.46875 L 3.0625 -5.46875 L 3.0625 -4.75 L 8.296875 -4.75 L 8.296875 -2.890625 L 3.0625 -2.890625 L 3.0625 -2.1875 L 8.296875 -2.1875 L 8.296875 0 Z M 0.21875 0 "/></g></g></g><g fill="#ff914d" fill-opacity="1"><g transform="translate(49.526971, 72.602688)"><g><path d="M 4.921875 0.109375 C 3.234375 0.109375 2.007812 -0.210938 1.25 -0.859375 C 0.488281 -1.503906 0.109375 -2.492188 0.109375 -3.828125 C 0.109375 -5.160156 0.488281 -6.144531 1.25 -6.78125 C 2.007812 -7.425781 3.234375 -7.75 4.921875 -7.75 C 6.441406 -7.75 7.597656 -7.46875 8.390625 -6.90625 C 9.191406 -6.351562 9.625 -5.472656 9.6875 -4.265625 L 6.78125 -4.265625 C 6.726562 -4.628906 6.554688 -4.898438 6.265625 -5.078125 C 5.972656 -5.265625 5.523438 -5.359375 4.921875 -5.359375 C 4.359375 -5.359375 3.9375 -5.285156 3.65625 -5.140625 C 3.375 -4.992188 3.1875 -4.804688 3.09375 -4.578125 C 3 -4.347656 2.953125 -4.097656 2.953125 -3.828125 C 2.953125 -3.554688 3 -3.300781 3.09375 -3.0625 C 3.1875 -2.832031 3.375 -2.644531 3.65625 -2.5 C 3.9375 -2.363281 4.359375 -2.296875 4.921875 -2.296875 C 5.523438 -2.296875 5.972656 -2.382812 6.265625 -2.5625 C 6.554688 -2.75 6.726562 -3.023438 6.78125 -3.390625 L 9.6875 -3.390625 C 9.625 -2.179688 9.195312 -1.296875 8.40625 -0.734375 C 7.613281 -0.171875 6.453125 0.109375 4.921875 0.109375 Z M 4.921875 0.109375 "/></g></g></g><g fill="#ff914d" fill-opacity="1"><g transform="translate(59.320358, 72.602688)"><g><path d="M 0.21875 0 L 0.21875 -7.640625 L 3.0625 -7.640625 L 3.0625 -5.03125 L 7.53125 -5.03125 L 7.53125 -7.640625 L 10.375 -7.640625 L 10.375 0 L 7.53125 0 L 7.53125 -2.625 L 3.0625 -2.625 L 3.0625 0 Z M 0.21875 0 "/></g></g></g><g fill="#ff914d" fill-opacity="1"><g transform="translate(69.910755, 72.602688)"><g/></g></g><g fill="#ff914d" fill-opacity="1"><g transform="translate(74.27793, 72.602688)"><g><path d="M 2.625 0 L 0.109375 -7.640625 L 3.15625 -7.640625 L 4.734375 -2.25 L 6.40625 -7.640625 L 9.78125 -7.640625 L 11.453125 -2.25 L 13.03125 -7.640625 L 16.078125 -7.640625 L 13.5625 0 L 9.34375 0 L 8.09375 -4.40625 L 6.84375 0 Z M 2.625 0 "/></g></g></g><g fill="#ff914d" fill-opacity="1"><g transform="translate(90.458309, 72.602688)"><g><path d="M 0.109375 0 L 3.71875 -3.828125 L 0.109375 -7.640625 L 3.828125 -7.640625 L 5.75 -5.46875 L 7.671875 -7.640625 L 11.375 -7.640625 L 7.765625 -3.828125 L 11.375 0 L 7.671875 0 L 5.75 -2.1875 L 3.828125 0 Z M 0.109375 0 "/></g></g></g></svg>